<?xml version="1.0" encoding="utf-8"?>
<!-- Generator: Adobe Illustrator 28.0.0, SVG Export Plug-In . SVG Version: 6.00 Build 0)  -->
<svg version="1.1" id="레이어_1" xmlns="http://www.w3.org/2000/svg" xmlns:xlink="http://www.w3.org/1999/xlink" x="0px"
	 y="0px" viewBox="0 0 24 24" style="enable-background:new 0 0 24 24;" xml:space="preserve">
<style type="text/css">
	.st0{fill:#193477;}
</style>
<path class="st0" d="M6.9,19h1.3C8.6,19,9,18.6,9,18.1v-4.3C9,13.4,9.4,13,9.9,13h4.3c0.5,0,0.9,0.4,0.9,0.9v4.3
	c0,0.5,0.4,0.9,0.9,0.9h1.3c0.5,0,0.9-0.4,0.9-0.9v-7.7c0-0.3-0.1-0.5-0.3-0.7l-5.1-3.8c-0.3-0.2-0.7-0.2-1,0L6.3,9.7
	C6.1,9.9,6,10.2,6,10.4v7.7C6,18.6,6.4,19,6.9,19z M4,20.1V9.4c0-0.3,0.1-0.5,0.3-0.7l7.1-5.3c0.3-0.2,0.7-0.2,1,0l7.1,5.3
	C19.9,8.9,20,9.2,20,9.4v10.7c0,0.5-0.4,0.9-0.9,0.9h-5.3c-0.5,0-0.9-0.4-0.9-0.9v-4.3c0-0.5-0.4-0.9-0.9-0.9h-0.3
	c-0.5,0-0.9,0.4-0.9,0.9v4.3c0,0.5-0.4,0.9-0.9,0.9H4.9C4.4,21,4,20.6,4,20.1z"/>
</svg>
