<?xml version="1.0" encoding="utf-8"?>
<!-- Generator: Adobe Illustrator 24.1.2, SVG Export Plug-In . SVG Version: 6.00 Build 0)  -->
<svg version="1.1" id="Layer_1" xmlns="http://www.w3.org/2000/svg" xmlns:xlink="http://www.w3.org/1999/xlink" x="0px" y="0px"
	 viewBox="0 0 1200 480" style="enable-background:new 0 0 1200 480;" xml:space="preserve">
<style type="text/css">
	.st0{fill:#292E68;}
	.st1{display:none;fill:#E52A12;}
	.st2{fill:url(#SVGID_1_);}
	.st3{fill:url(#SVGID_2_);}
</style>
<path class="st0" d="M279.95,323.46v55.39H101.6c0,0-70.84-4.57-70.84-55.39s0-50.82,0-50.82v-58.9c0,0-8-56.56,56.36-56.56
	s198.53,0,198.53,0h166.47c0,0,92.38,0,92.62,0c13.13,0,27.05,2.77,34.29,15.33c5.7,9.89,6.27,25.44,6.71,36.67
	c0.77,19.21-0.36,42.06-13.59,57.22c-0.85,0.98,7.24,12.07,7.95,13.47c8.34,16.27,4.83,35.26,4.82,52.79
	c0,2.94-0.24,46.19-0.05,46.19c0,0-69.11,0-69.11,0v-69.28c0,0,3.92-27.79-28.02-27.79s-82.88,0-82.88,0s-14.13-1.19-14.13,13.89
	s0,83.18,0,83.18s-69.11,0-69.11,0c0-43.48,0-86.96,0-130.44c0-2.73,0-5.46,0-8.19c0,0,115.65,0,124.45,0c18.52,0,37.04,0,55.57,0
	c0,0,13.95,0.18,13.95-13.95s0-14.13,0-14.13s-0.77-13.71-13.95-13.71c-19.57,0-39.14,0-58.71,0c-39.78,0-79.55,0-119.33,0
	c-40.99,0-81.98,0-122.97,0c-14.77,0-29.55,0-44.32,0c-17.04,0-39.13-2.49-51,12.8c-5.98,7.71-5.63,17.26-5.67,26.5
	c0-2.18,0-4.36,0-6.54c0,3.03,0,6.06,0,9.09c42.24,0,84.49,0,126.73,0c3.89,0,7.78,0,11.66,0c0,0,0,41.86,0,41.86H114.6
	c0,0-13.98-0.71-13.98,13.98c0,14.69,0,13.27,0,13.27s0.98,14.07,13.09,14.07S279.95,323.46,279.95,323.46z"/>
<path class="st1" d="M345.04,165.21v60.84H149.13c0,0-77.82-5.02-77.82-60.84s0-55.83,0-55.83v-64.7c0,0-8.79-62.13,61.91-62.13
	s218.09,0,218.09,0h182.87h101.74c0,0,44.09-6.09,44.09,45.43s0,54.78,0,54.78s-2.74,8.48-14.61,20.22c0,0,14.61,7.43,14.61,34.04
	s0,89.02,0,89.02h-75.91v-76.11c0,0,4.3-30.52-30.78-30.52c-35.09,0-91.04,0-91.04,0s-15.52-1.3-15.52,15.26s0,91.37,0,91.37h-75.91
	V73.77h197.74c0,0,15.33,0.2,15.33-15.33s0-15.52,0-15.52s-0.85-15.07-15.33-15.07c-14.48,0-409.89,0-409.89,0
	s-31.7,6.26-31.7,30.91s0,4.89,0,4.89v10.17H299v45.98H163.41c0,0-15.36-0.78-15.36,15.36s0,14.58,0,14.58s1.08,15.46,14.38,15.46
	S345.04,165.21,345.04,165.21z"/>
<rect x="638.54" y="157.18" class="st0" width="72.67" height="221.67"/>
<polygon class="st0" points="763.46,157.18 763.46,378.85 834.7,378.85 834.7,268.02 857.98,268.02 968.73,378.77 1067.44,378.77 
	931.6,250.28 1034.19,157.18 932.07,157.18 856.08,239.63 834.7,239.63 834.7,157.18 "/>
<linearGradient id="SVGID_1_" gradientUnits="userSpaceOnUse" x1="1047.3269" y1="124.3963" x2="1128.2831" y2="124.3963">
	<stop  offset="0" style="stop-color:#FABD2D"/>
	<stop  offset="1" style="stop-color:#E84E0F"/>
</linearGradient>
<path class="st2" d="M1116.38,74.3l-69.05-19.33c0,0,4.3,88.05,53.52,120.43c49.23,32.38,17.18,12.22,17.18,12.22l-0.66-4.3v6.61
	C1117.37,189.94,1109.11,138.06,1116.38,74.3z"/>
<linearGradient id="SVGID_2_" gradientUnits="userSpaceOnUse" x1="1047.3258" y1="146.6184" x2="1172.2152" y2="146.6184">
	<stop  offset="0" style="stop-color:#17619D"/>
	<stop  offset="0.9975" style="stop-color:#282F69"/>
</linearGradient>
<path class="st3" d="M1047.33,54.97c0,0-1.65,84.08,124.89,112.5v70.04C1172.22,237.51,1047.66,260.31,1047.33,54.97z"/>
</svg>
