<svg xmlns="http://www.w3.org/2000/svg" viewBox="0 0 472.74 487.07"><defs><style>.cls-1{fill:#37474f;}.cls-2{fill:#263238;}.cls-3{fill:#f4b2a4;}.cls-4{fill:#94fff7;}.cls-5{fill:#fff;}.cls-6{opacity:0.1;isolation:isolate;}.cls-7{fill:#ffc727;}.cls-8{fill:#c7c7c7;}.cls-9{fill:#d35118;}.cls-10{fill:#ebebeb;}.cls-11{fill:#455a64;}.cls-12{fill:#dbdbdb;}.cls-13{fill:#d3766a;}.cls-14{fill:#1c2429;}.cls-15{fill:#bd3260;}.cls-16{fill:#e0e0e0;}</style></defs><g id="Layer_2" data-name="Layer 2"><g id="Layer_1-2" data-name="Layer 1"><g id="freepik--Character--inject-162"><path class="cls-1" d="M204.17,394.49c-1.7,2.15-144.88,8.57-151.71,6.62a4.54,4.54,0,0,1-.93-.41c-8.44-3.94-47.47-39.78-50.42-42.81-7.22-7.4,22.69-59.56,32.21-68.18,6.34-5.74,18.08-8,18.08-8S84.58,186,105.08,166c5.14-5,93.92-7,109.8.23,6.79,3.07,23.31,19.94,23.76,23h0C239,193.68,205.89,392.29,204.17,394.49Z"/><path class="cls-2" d="M192,389.55c-1.64,2.06-139.46,8.25-146,6.37a5.1,5.1,0,0,1-.9-.39c13.2-35.7,75.29-203.25,77.05-204.33s83.43-.59,103,.81C225.52,196.27,193.65,387.44,192,389.55Z"/><path class="cls-1" d="M142.31,174.29c-1.58-1.5-2.63-23,.29-27.31,3.26-4.8,40.93-2.43,43.16,1.7s3.29,25.61,2.15,26.37-7.41,1.53-8.26.15-.8-19.17-1.46-20.11-27.05-2.66-27.95-1.3,1.29,19.36.24,20.14S143.86,175.73,142.31,174.29Z"/><path class="cls-3" d="M203.13,217.36C219.21,239.35,322.51,335,389,334.94c11.18,0,50.21,4.62,60-28.27,11.43-38.32,10.6-119.14-1.2-156.24-9.75-30.7-81.61,13.1-82.8,32-.91,14.37,1.85,60.06-1.07,60-19-.79-82.59-35.64-142.18-52.69C194.13,181.73,190.68,200.47,203.13,217.36Z"/><path class="cls-3" d="M449.4,160.71c-6.15-30.7-22.67-63.08-32.28-71.84s-55.25-24.52-66.28-26S299.89,71,292.45,77.6c-5.95,5.3,3.2,19.15,25.72,18.29,21-.73,26-1.94,32-.7s23.3,16.65,21.28,25.45c-1.2,5.17-13.83,13.55-23.18,11.44s-14.63-11.65-26.06-17.64-28.48-1.47-28.53,3.4,6.12,5.88,18.2,19.89c7.78,9,12.78,26.41,29.31,41.29,8.29,7.49,27.61,19.3,27.61,19.3Z"/><path class="cls-3" d="M414.55,90c-11-11.36-37.09-30.63-59.92-34.35C339.24,53,295,87,298.39,96.12s11.75,7.4,23.87,3.38c4.41-1.47,26.58-15,31.69-10.78,7.34,6,19.84,29.16,19.84,29.16Z"/><path class="cls-2" d="M298.86,92.2c4-11.28,16.25-19.38,28.65-26.34.19-.11.37.2.18.29-3.2,1.79-22.75,16.16-28.66,26.18C299,92.44,298.82,92.32,298.86,92.2Z"/><path class="cls-3" d="M414.55,90c-11-11.36-37.09-30.63-59.92-34.35-15.39-2.56-48,36-44.62,45.1s15.57,7.37,27.94,0c4-2.38,16.35-15.5,21.46-11.32,7.33,6,25.3,21,25.3,21Z"/><path class="cls-2" d="M327.3,105.61c5.13-1.51,10.22-5.79,14.18-9.29,3.46-3,7-6.84,11.56-8.22a9.88,9.88,0,0,1,6.13,0,18.86,18.86,0,0,1,5.35,3.75c1.91,1.6,3.73,3.34,5.5,5.1s2.41,2.37,4.17,4.16c.74.75.16,1.18-.67.39a67.48,67.48,0,0,0-9.77-7.73,22.39,22.39,0,0,0-5.59-3.32,8.24,8.24,0,0,0-6.38.88c-4.09,2.2-7.31,5.82-11.18,8.36s-8.62,5.75-13.23,6.39C327.13,106,327.1,105.61,327.3,105.61Z"/><path class="cls-2" d="M310.19,90.59c2.06-5.23,6-9.9,9.8-14a115.06,115.06,0,0,1,13-11.83c2.38-1.85,4.79-3.67,7.28-5.39s4.79-3.66,7.56-4.39c7.69-2,16.28,2.52,19.63,3.77.21.08.13.41-.08.33-2.76-1-11.67-4.26-16.49-3.19a21.13,21.13,0,0,0-8,4.13c-2.11,1.6-4.22,3.1-6.29,4.7-8.41,6.49-16.92,14.06-22.53,23.22-3.09,5.1-4.79,11.28-1.19,16.54.12.19-.13.37-.29.24C308.66,101.38,308.42,95.13,310.19,90.59Z"/><path class="cls-3" d="M434.12,115.64c-9-18.9-25.8-45.72-32.34-52.57S367,33.65,356.71,37c-13,4.18,5.76,25.25,14.72,33.68S382.6,96,382.6,96Z"/><path class="cls-2" d="M358.42,56.33c3.11,2.62,6,5.62,8.83,8.53a80.68,80.68,0,0,1,8,8.55A35,35,0,0,1,380,83.81c.56,1.8,1,3.62,1.37,5.47s.67,4.11,1.13,6.1c0,.23-.27.32-.33.11a84.64,84.64,0,0,0-3.69-10.71,47.62,47.62,0,0,0-5.57-10.26c-4.52-6.39-10.31-11.58-14.9-17.85C357.83,56.43,358.19,56.13,358.42,56.33Z"/><path class="cls-4" d="M362.27,200.23l110.47,25.12S461.37,312.91,438.45,329s-78.95,9.77-113.11-11.17-100.08-65.37-122.16-97.93,2.36-39.41,25.78-29.8,130.7,49.31,131.85,48.56S362.27,200.23,362.27,200.23Z"/><path class="cls-5" d="M435.76,293.24a4.73,4.73,0,0,1-1.91.93,3.83,3.83,0,0,1-3.48-1.07,4.77,4.77,0,0,0-5.43-.94,5,5,0,0,0-2,1.77c-.45.64-.95,1.26-1.38,2a17.81,17.81,0,0,0,2.06-1.35,6,6,0,0,1,1.85-1,3.79,3.79,0,0,1,3.53.94,5,5,0,0,0,5.33,1.12,4.81,4.81,0,0,0,2.1-1.71c.44-.69.94-1.33,1.32-2.06A22.79,22.79,0,0,0,435.76,293.24ZM348,308.07a4,4,0,0,1-5.38-.09,4.79,4.79,0,0,0-5.38-1,5.36,5.36,0,0,0-2,1.77,19.64,19.64,0,0,0-1.37,2,19.71,19.71,0,0,0,2.06-1.35,4.22,4.22,0,0,1,1.85-1,3.67,3.67,0,0,1,3.48.94,5.05,5.05,0,0,0,5.38,1.12,4.9,4.9,0,0,0,2.06-1.71c.43-.69,1-1.33,1.37-2.06-.73.4-1.37.88-2.06,1.32ZM392,221.52a4,4,0,0,1-1.85.94,3.68,3.68,0,0,1-3.48-1.09,5,5,0,0,0-5.43-.92,4.8,4.8,0,0,0-2,1.75c-.43.69-1,1.33-1.37,2.06.73-.45,1.37-.92,2.06-1.37a4,4,0,0,1,1.87-1,3.65,3.65,0,0,1,3.51.88,4.79,4.79,0,0,0,6.77.2,4.59,4.59,0,0,0,.67-.79,24.09,24.09,0,0,0,1.32-2.06c-.73.42-1.37.94-2.06,1.38Zm-79,51.22c-.13-.8-.29-1.6-.5-2.39-.19.78-.29,1.6-.49,2.39a5.11,5.11,0,0,1-.58,2,3.65,3.65,0,0,1-3.19,1.8,5.06,5.06,0,0,0-4.6,3,4.79,4.79,0,0,0-.24,2.7,19.66,19.66,0,0,0,.5,2.4,21.65,21.65,0,0,0,.47-2.4,4.35,4.35,0,0,1,.69-2,3.68,3.68,0,0,1,3.19-1.71,4.79,4.79,0,0,0,4.46-3.19,4.51,4.51,0,0,0,.29-2.64ZM303,222.39a20.14,20.14,0,0,0-.48-2.41c-.19.78-.3,1.6-.5,2.41a4.55,4.55,0,0,1-.59,2,3.61,3.61,0,0,1-3.19,1.82,4.79,4.79,0,0,0-4.87,4.71,5.18,5.18,0,0,0,.08,1,20.62,20.62,0,0,0,.48,2.44,20.3,20.3,0,0,0,.5-2.44,4.22,4.22,0,0,1,.68-1.95,3.66,3.66,0,0,1,3.19-1.73,5,5,0,0,0,4.51-3.19A4.68,4.68,0,0,0,303,222.39Zm134.45,97.27a19.82,19.82,0,0,0-.48-2.39c-.21.78-.3,1.6-.49,2.39a4.78,4.78,0,0,1-.6,2,3.63,3.63,0,0,1-3.19,1.8,5,5,0,0,0-4.6,3,4.89,4.89,0,0,0-.24,2.65c.12.82.28,1.64.48,2.44a18.19,18.19,0,0,0,.5-2.44,4.15,4.15,0,0,1,.68-2,3.65,3.65,0,0,1,3.2-1.71,4.8,4.8,0,0,0,4.76-4.82,4.89,4.89,0,0,0-.12-1Zm-46.71-52a19.08,19.08,0,0,0-.48-2.39c-.19.78-.3,1.59-.5,2.39a4.59,4.59,0,0,1-.59,2,3.56,3.56,0,0,1-3.19,1.81,4.78,4.78,0,0,0-4.87,4.7,4.58,4.58,0,0,0,.08,1,20.23,20.23,0,0,0,.48,2.44,18.49,18.49,0,0,0,.49-2.44,4.39,4.39,0,0,1,.69-2,3.63,3.63,0,0,1,3.19-1.71,5,5,0,0,0,4.51-3.2,4.81,4.81,0,0,0,.19-2.63Zm46.71-11.88a4.87,4.87,0,0,1-2-.64,3.7,3.7,0,0,1-1.71-3.19,5,5,0,0,0-3.2-4.5,4.45,4.45,0,0,0-2.65-.21c-.83.21-1.59.3-2.44.5.83.24,1.6.33,2.44.49a5,5,0,0,1,2,.58,3.77,3.77,0,0,1,1.8,3.19,5,5,0,0,0,3,4.6,4.71,4.71,0,0,0,2.65.24,18.67,18.67,0,0,0,2.45-.5C439,256.11,438.24,256,437.41,255.82ZM395,323.1a4.88,4.88,0,0,1-2-.69,3.75,3.75,0,0,1-1.73-3.19,4.78,4.78,0,0,0-4.75-4.82,4.2,4.2,0,0,0-1.06.11c-.84.2-1.59.3-2.41.49a22.42,22.42,0,0,0,2.41.5,4.27,4.27,0,0,1,2,.62,3.75,3.75,0,0,1,1.87,3.19,4.79,4.79,0,0,0,3,4.55,4.73,4.73,0,0,0,2.68.24,19.63,19.63,0,0,0,2.4-.49A16.61,16.61,0,0,0,395,323.1Zm-48.08-67.28a4.75,4.75,0,0,1-2-.64,3.94,3.94,0,0,1-1.71-3.19,4.79,4.79,0,0,0-3.19-4.5,4.64,4.64,0,0,0-2.68-.21c-.79.16-1.6.26-2.4.5a24.29,24.29,0,0,0,2.4.49,5.3,5.3,0,0,1,2,.58,3.87,3.87,0,0,1,1.81,3.19,5,5,0,0,0,3,4.6,4.88,4.88,0,0,0,2.7.24,19.66,19.66,0,0,0,2.4-.5,22.72,22.72,0,0,0-2.37-.56Zm-94-41.41c-.21-.83-.3-1.6-.49-2.44-.24.83-.34,1.6-.5,2.44a4.89,4.89,0,0,1-.57,2,3.77,3.77,0,0,1-3.2,1.81,4.92,4.92,0,0,0-4.59,3,4.56,4.56,0,0,0-.24,2.63,16.34,16.34,0,0,0,.49,2.41c.19-.78.29-1.59.48-2.41A4.94,4.94,0,0,1,245,222a3.63,3.63,0,0,1,3.19-1.71,5,5,0,0,0,4.5-3.19A4.51,4.51,0,0,0,252.94,214.41Zm-43.1-23.48a4.35,4.35,0,0,1-2-.69,3.89,3.89,0,0,1-1.71-3.19,4.86,4.86,0,0,0,0-.54c-.67.11-1.31.24-1.93.39a.67.67,0,0,1,0,.2,5,5,0,0,0,3,4.59,4.71,4.71,0,0,0,2.7.24,17.91,17.91,0,0,0,2.4-.49,18.77,18.77,0,0,0-2.34-.51Zm54.28,82.49a4.21,4.21,0,0,1-2-.69,3.83,3.83,0,0,1-1.71-3.19,4.93,4.93,0,0,0-3.19-4.51,4.63,4.63,0,0,0-2.63-.14,19.6,19.6,0,0,0-2.4.48c.78.21,1.6.3,2.4.49a4.79,4.79,0,0,1,2,.59,3.78,3.78,0,0,1,1.87,3.2,4.93,4.93,0,0,0,3,4.6,5.19,5.19,0,0,0,2.68.23,22.28,22.28,0,0,0,2.41-.47A16.94,16.94,0,0,0,264.12,273.42Z"/><path class="cls-2" d="M354.78,262.36c-.24-3-.31-6.07-.26-9.11a96.89,96.89,0,0,1,2.38-17.46c0-.26.49-.19.47.08-.62,5.75-.67,11.62-.91,17.41-.14,2.87-.21,5.74-.24,8.62s-.17,5.91,0,8.84a.15.15,0,0,1-.3,0C355.49,268,355,265.19,354.78,262.36Z"/><path class="cls-2" d="M464.26,250.51c-52.07-14-89.75-20.44-97-21.51a.16.16,0,0,0-.17.15.17.17,0,0,0,.09.16c36.21,10.69,93.47,21.58,97,21.83a.34.34,0,0,0,.29-.37A.32.32,0,0,0,464.26,250.51Z"/><path class="cls-6" d="M436.82,330.1c-23.87,14.76-78.08,8.21-111.46-12.27-34.17-20.95-100.1-65.36-122.18-97.9-5.83-8.57-8.41-15.37-8.62-20.54Z"/><path class="cls-4" d="M49.16,447.25c.17.2,231.76-10.61,233.27-12,2.8-2.67-33-183.38-70.49-246.65-7-11.87-38.69-29.34-61.67-6.9C81,249.38,46.24,443.19,49.16,447.25Z"/><path class="cls-5" d="M148.3,263.45a4.85,4.85,0,0,1-2.08-.73,3.92,3.92,0,0,1-1.82-3.4,5.1,5.1,0,0,0-5.12-5.06,6.37,6.37,0,0,0-1.07.12,24.94,24.94,0,0,0-2.6.53c.88.2,1.7.31,2.6.48a5.15,5.15,0,0,1,2.13.66,4,4,0,0,1,1.92,3.39,5.27,5.27,0,0,0,3.23,4.84,4.92,4.92,0,0,0,2.81.3c.89-.2,1.7-.3,2.55-.52A20.55,20.55,0,0,0,148.3,263.45Zm47.16,168.61a4.76,4.76,0,0,1-2.12-.73,4,4,0,0,1-1.83-3.39,5.2,5.2,0,0,0-3.4-4.79,5.33,5.33,0,0,0-2.8-.15c-.83.15-1.69.27-2.54.47a22.39,22.39,0,0,0,2.54.51,5.55,5.55,0,0,1,2.13.68,4,4,0,0,1,2,3.4,5.09,5.09,0,0,0,3.17,4.83,5,5,0,0,0,2.86.33c.83-.21,1.69-.33,2.56-.53A10.57,10.57,0,0,0,195.46,432.06Zm47-168.34a6.27,6.27,0,0,0-1,.24c.39.1.78.18,1.19.25a2.13,2.13,0,0,0-.15-.49Zm-46-78.86a4.75,4.75,0,0,1-2.13-.73,4.13,4.13,0,0,1-1.82-3.4,5.09,5.09,0,0,0-3.39-4.73,5,5,0,0,0-2.87-.22c-.83.17-1.7.27-2.55.53.83.2,1.7.3,2.55.52a5.05,5.05,0,0,1,2.14.63,4,4,0,0,1,2,3.39,5.33,5.33,0,0,0,3.18,4.89,5.12,5.12,0,0,0,2.87.26,19.74,19.74,0,0,0,2.54-.53,20.87,20.87,0,0,0-2.48-.61ZM81.46,334a5.26,5.26,0,0,1-2.12-.66,4.25,4.25,0,0,1-1.82-3.4,5.07,5.07,0,0,0-1.31-3.39l-.84,2.73a3.42,3.42,0,0,1,0,.64,5.3,5.3,0,0,0,3.17,4.89,4.87,4.87,0,0,0,2.85.27,22.32,22.32,0,0,0,2.56-.52C83.19,334.28,82.29,334.18,81.46,334Zm51.13,71.51a5.37,5.37,0,0,1-2.14-.71,4,4,0,0,1-1.82-3.4,5.19,5.19,0,0,0-3.39-4.78,5.41,5.41,0,0,0-2.82-.21c-.88.21-1.69.31-2.54.53a22,22,0,0,0,2.54.51,4.5,4.5,0,0,1,2.14.68,4,4,0,0,1,2,3.39,5.09,5.09,0,0,0,3.17,4.84,5,5,0,0,0,2.85.27,24.55,24.55,0,0,0,2.55-.53A16.44,16.44,0,0,0,132.59,405.47ZM174.78,336a5.14,5.14,0,0,1-2.09-.67,4,4,0,0,1-1.82-3.4,5.28,5.28,0,0,0-3.39-4.78,4.69,4.69,0,0,0-2.82-.21c-.88.21-1.69.31-2.59.51a20.86,20.86,0,0,0,2.59.53,5.05,5.05,0,0,1,2.14.63,4,4,0,0,1,1.92,3.39,5.33,5.33,0,0,0,3.22,4.89,5,5,0,0,0,2.82.25,23.41,23.41,0,0,0,2.6-.51A21.54,21.54,0,0,0,174.78,336Zm70.8,44.31a4.14,4.14,0,0,1-2.09-.73,3.86,3.86,0,0,1-1.82-3.39,5.29,5.29,0,0,0-3.39-4.79,5.6,5.6,0,0,0-2.87-.15c-.83.15-1.7.26-2.54.46a21.59,21.59,0,0,0,2.54.53,5,5,0,0,1,2.19.67,3.92,3.92,0,0,1,1.92,3.4,5.23,5.23,0,0,0,3.17,4.83,4.86,4.86,0,0,0,2.87.31c.88-.2,1.7-.31,2.54-.51A18.21,18.21,0,0,0,245.58,380.3ZM235,326.66a5.85,5.85,0,0,1-2,1.1,4,4,0,0,1-3.75-1,5.28,5.28,0,0,0-5.67-1.19,4.77,4.77,0,0,0-2.22,1.82c-.48.73-1,1.41-1.46,2.19.78-.48,1.46-1,2.19-1.46a4.84,4.84,0,0,1,2-1,4.15,4.15,0,0,1,3.75,1.13,5.26,5.26,0,0,0,5.77,1,5.48,5.48,0,0,0,2.14-1.88c.46-.73,1-1.39,1.39-2.17C236.39,325.69,235.73,326.22,235,326.66ZM148.3,196.75c-.17-.9-.27-1.69-.47-2.56a25.29,25.29,0,0,0-.53,2.56,5.2,5.2,0,0,1-.66,2.13,3.86,3.86,0,0,1-3.39,1.93,5.28,5.28,0,0,0-4.84,3.22,5.19,5.19,0,0,0-.31,2.86c.21.83.31,1.69.53,2.54.21-.84.38-1.69.51-2.54a4.52,4.52,0,0,1,.73-2.13,4,4,0,0,1,3.39-1.83,5.09,5.09,0,0,0,5.06-5.12,4.72,4.72,0,0,0-.12-1.06ZM127.94,346.58a21.54,21.54,0,0,0-.51-2.54c-.2.83-.32,1.69-.53,2.54a5.19,5.19,0,0,1-.62,2.14,3.87,3.87,0,0,1-3.4,1.92,5.09,5.09,0,0,0-5.18,5,6,6,0,0,0,.09,1,23,23,0,0,0,.51,2.6,21,21,0,0,0,.53-2.6,4.38,4.38,0,0,1,.73-2.09,3.86,3.86,0,0,1,3.39-1.81,5.34,5.34,0,0,0,4.79-3.4,5.16,5.16,0,0,0,.27-2.78ZM204,283.34c-.2-.84-.3-1.7-.52-2.55a22.12,22.12,0,0,0-.51,2.55,5.25,5.25,0,0,1-.68,2.18,3.9,3.9,0,0,1-3.4,1.94,5.09,5.09,0,0,0-4.83,3.22,4.29,4.29,0,0,0-.26,2.8c.16.89.26,1.7.46,2.55a20.25,20.25,0,0,0,.53-2.55,5,5,0,0,1,.73-2.08,3.86,3.86,0,0,1,3.39-1.82,5.28,5.28,0,0,0,4.79-3.39,6.26,6.26,0,0,0,.37-2.84ZM94.76,435.1c-.2-.88-.3-1.7-.52-2.55a18.56,18.56,0,0,0-.51,2.55,4.65,4.65,0,0,1-.68,2.14,3.8,3.8,0,0,1-3.4,1.92,5.27,5.27,0,0,0-4.83,3.22,5,5,0,0,0-.27,2.87.79.79,0,0,0,.08.42h.87l.1-.39a4.43,4.43,0,0,1,.68-2.14,3.87,3.87,0,0,1,3.39-1.81,5.22,5.22,0,0,0,4.79-3.4,5.41,5.41,0,0,0,.37-2.81ZM198.28,235a4.61,4.61,0,0,1-2,1,3.85,3.85,0,0,1-3.68-1.14,5.29,5.29,0,0,0-5.77-1,5.23,5.23,0,0,0-2.14,1.87c-.47.73-1,1.41-1.46,2.19.79-.47,1.46-1,2.19-1.46a4.31,4.31,0,0,1,2-1,3.86,3.86,0,0,1,3.75.93,5.1,5.1,0,0,0,7.2.21,5.64,5.64,0,0,0,.71-.84c.48-.73,1-1.41,1.41-2.19-.71.49-1.41,1-2.14,1.46Zm-69,62.47a4,4,0,0,1-2,1,3.83,3.83,0,0,1-3.69-1.13,5.28,5.28,0,0,0-5.77-1,5.1,5.1,0,0,0-2.14,1.87c-.46.73-1,1.41-1.46,2.19.78-.48,1.46-1,2.19-1.46a4.17,4.17,0,0,1,2-1,3.87,3.87,0,0,1,3.74.94,5.09,5.09,0,0,0,7.19.2,4.66,4.66,0,0,0,.71-.83c.48-.73,1-1.41,1.41-2.19-.73.49-1.32,1-2.14,1.48Zm-46.65,92a4.22,4.22,0,0,1-5.72-.12,5.07,5.07,0,0,0-5.72-1,5.7,5.7,0,0,0-2.13,1.86,19.85,19.85,0,0,0-1.46,2.19,18.53,18.53,0,0,0,2.19-1.46,4.42,4.42,0,0,1,2-1,4,4,0,0,1,3.7,1,5.09,5.09,0,0,0,7.2.22,4.66,4.66,0,0,0,.71-.83c.46-.73,1-1.41,1.46-2.19C84.07,388.52,83.39,389,82.66,389.45ZM193.29,380a4.86,4.86,0,0,1-2,1,4,4,0,0,1-3.68-1.14,5.06,5.06,0,0,0-5.78-1,5.3,5.3,0,0,0-2.13,1.88c-.47.68-1,1.34-1.46,2.12a18.79,18.79,0,0,0,2.19-1.44,6.8,6.8,0,0,1,2-1.05,4,4,0,0,1,3.75,1,5.1,5.1,0,0,0,7.2.21,5.64,5.64,0,0,0,.71-.84c.46-.73,1-1.41,1.39-2.19-.74.49-1.39,1-2.12,1.53Zm62.2,38.07a5.07,5.07,0,0,1-2,1,4.1,4.1,0,0,1-3.75-1.14,5.19,5.19,0,0,0-5.72-1,4.74,4.74,0,0,0-2.14,1.87,24.35,24.35,0,0,0-1.46,2.18c.78-.47,1.46-1,2.19-1.46a4.9,4.9,0,0,1,2-1.08,3.87,3.87,0,0,1,3.68,1,5.3,5.3,0,0,0,5.72,1.19,5.14,5.14,0,0,0,2.19-1.81c.47-.73,1-1.41,1.46-2.19-.79.54-1.46,1.07-2.19,1.52Z"/><rect class="cls-1" x="122.75" y="313.57" width="190.33" height="36.45" transform="translate(-141.13 501.1) rotate(-81.95)"/><rect class="cls-2" x="158.69" y="318.43" width="190.33" height="36.45" transform="translate(-115.03 540.86) rotate(-81.95)"/><rect class="cls-7" x="201.74" y="382.21" width="17.73" height="36.45" transform="translate(-214.6 555.04) rotate(-82.24)"/><rect class="cls-7" x="210.4" y="358.47" width="6.87" height="36.45" transform="translate(-188.28 537.71) rotate(-82.24)"/><rect class="cls-8" x="165.46" y="322.45" width="204.54" height="32.85" transform="matrix(0.14, -0.99, 0.99, 0.14, -104.2, 558.4)"/><rect class="cls-9" x="268.53" y="243.57" width="19.89" height="32.85" transform="translate(-16.74 500.81) rotate(-82.24)"/><rect class="cls-9" x="271.54" y="261.94" width="8.3" height="32.85" transform="translate(-38.53 512.37) rotate(-81.95)"/><rect class="cls-7" x="248.66" y="389.28" width="19.89" height="32.85" transform="translate(-178.3 607.16) rotate(-82.24)"/><rect class="cls-10" x="212.38" y="314.33" width="204.73" height="62.09" transform="translate(-69.97 610.61) rotate(-82.24)"/><rect class="cls-11" x="210.96" y="335.25" width="188.83" height="27.3" transform="translate(-81.57 604.38) rotate(-82.24)"/><rect class="cls-1" x="249.96" y="328.5" width="188.83" height="51.45" transform="translate(-53.11 647.62) rotate(-82.24)"/><rect class="cls-5" x="210.96" y="338.09" width="188.83" height="21.64" transform="translate(-81.57 604.38) rotate(-82.24)"/><polygon class="cls-12" points="322.79 268.35 320.01 290.24 317.11 312.13 311.28 355.9 305.18 399.63 302.12 421.49 298.95 443.35 301.71 421.44 304.62 399.55 310.45 355.78 316.55 312.05 319.6 290.19 322.79 268.35"/><polygon class="cls-12" points="318.58 267.77 315.8 289.68 312.9 311.56 307.07 355.32 300.98 399.06 297.93 420.93 294.74 442.77 297.5 420.86 300.42 398.99 306.24 355.2 312.34 311.49 315.39 289.62 318.58 267.77"/><polygon class="cls-12" points="314.37 267.2 311.59 289.11 308.69 310.98 302.87 354.76 296.77 398.48 293.72 420.35 290.53 442.19 293.31 420.29 296.21 398.41 302.04 354.64 308.13 310.91 311.18 289.04 314.37 267.2"/><polygon class="cls-12" points="310.16 266.62 307.4 288.53 304.48 310.42 298.68 354.19 292.57 397.92 289.51 419.77 286.32 441.62 289.1 419.73 292.01 397.83 297.83 354.07 303.94 310.33 306.99 288.48 310.16 266.62"/><path class="cls-11" d="M151.78,182.08c-2.85-3.4,15.55-13.58,20.37-9.75s29,63.56,21.11,128.33S56.48,435.27,51.73,425.53c-2-4.07.56-15.43,3.7-19.06,4.41-5.09,97.45-61.31,106.65-101.48C170.25,269.27,159,190.9,151.78,182.08Z"/><path class="cls-4" d="M119.64,228C80.42,322.62,45,455.53,83.85,473.86c25.83,12.17,77.25-85.46,77.74-87.24,1.7-6.1,2.85-85,4.72-157.27C168,162.63,137.15,185.66,119.64,228Z"/><path class="cls-5" d="M148.3,263.45a4.85,4.85,0,0,1-2.08-.73,3.92,3.92,0,0,1-1.82-3.4,5.1,5.1,0,0,0-5.12-5.06,6.37,6.37,0,0,0-1.07.12,24.94,24.94,0,0,0-2.6.53c.88.2,1.7.31,2.6.48a5.15,5.15,0,0,1,2.13.66,4,4,0,0,1,1.92,3.39,5.27,5.27,0,0,0,3.23,4.84,4.92,4.92,0,0,0,2.81.3c.89-.2,1.7-.3,2.55-.52A20.55,20.55,0,0,0,148.3,263.45ZM83,334.28a4.21,4.21,0,0,1-.12.48,8.62,8.62,0,0,0,1.14-.28C83.68,334.4,83.34,334.33,83,334.28Zm49.59,71.19a5.37,5.37,0,0,1-2.14-.71,4,4,0,0,1-1.82-3.4,5.19,5.19,0,0,0-3.39-4.78,5.41,5.41,0,0,0-2.82-.21c-.88.21-1.69.31-2.54.53a22,22,0,0,0,2.54.51,4.5,4.5,0,0,1,2.14.68,4,4,0,0,1,2,3.39,5.09,5.09,0,0,0,3.17,4.84,5,5,0,0,0,2.85.27,24.55,24.55,0,0,0,2.55-.53A16.44,16.44,0,0,0,132.59,405.47Zm29.49-78.06a15.64,15.64,0,0,0,1.92.42V327C163.37,327.15,162.74,327.25,162.08,327.41ZM148.3,196.74c-.17-.9-.27-1.7-.47-2.57a24.92,24.92,0,0,0-.53,2.57,5.15,5.15,0,0,1-.66,2.12,3.86,3.86,0,0,1-3.39,1.93,5.27,5.27,0,0,0-4.84,3.23,5.14,5.14,0,0,0-.31,2.85c.21.83.31,1.7.53,2.54.21-.84.38-1.68.51-2.54a4.45,4.45,0,0,1,.73-2.12,4,4,0,0,1,3.39-1.84,5.09,5.09,0,0,0,5.06-5.12,4.57,4.57,0,0,0-.12-1ZM127.94,346.57a22.12,22.12,0,0,0-.51-2.55c-.2.83-.32,1.7-.53,2.55a5.1,5.1,0,0,1-.62,2.13,3.87,3.87,0,0,1-3.4,1.92,5.09,5.09,0,0,0-5.18,5,6,6,0,0,0,.09,1,23,23,0,0,0,.51,2.6,20.65,20.65,0,0,0,.53-2.6,4.34,4.34,0,0,1,.73-2.08,3.85,3.85,0,0,1,3.39-1.82,5.35,5.35,0,0,0,4.79-3.39,5.23,5.23,0,0,0,.27-2.77ZM94.76,435.08c-.2-.88-.3-1.69-.52-2.54a18.13,18.13,0,0,0-.51,2.54,4.65,4.65,0,0,1-.68,2.14,3.79,3.79,0,0,1-3.4,1.92,5.27,5.27,0,0,0-4.83,3.22,5,5,0,0,0-.27,2.87c.17.83.27,1.7.52,2.55.21-.89.31-1.7.53-2.55a4.43,4.43,0,0,1,.68-2.14,3.87,3.87,0,0,1,3.39-1.81,5.22,5.22,0,0,0,4.79-3.4,5.42,5.42,0,0,0,.37-2.76ZM129.3,297.47a4.24,4.24,0,0,1-2,1,3.85,3.85,0,0,1-3.7-1.14,5.3,5.3,0,0,0-5.77-1,5.1,5.1,0,0,0-2.14,1.87c-.46.73-1,1.41-1.46,2.19.78-.47,1.46-1,2.19-1.46a4.19,4.19,0,0,1,2-1,3.85,3.85,0,0,1,3.73.93,5.1,5.1,0,0,0,7.2.21,6.31,6.31,0,0,0,.71-.84c.47-.73,1-1.41,1.41-2.19-.72.51-1.31,1-2.13,1.5Zm-46.64,92a4.22,4.22,0,0,1-5.72-.12,5.07,5.07,0,0,0-5.72-1,1.9,1.9,0,0,0-.37.2c-.12.63-.22,1.26-.32,1.88a3.61,3.61,0,0,1,1.25-.52,4,4,0,0,1,3.7,1,5.09,5.09,0,0,0,7.2.22,4.66,4.66,0,0,0,.71-.83c.46-.73,1-1.41,1.46-2.19C84.07,388.52,83.39,389,82.66,389.45Z"/><path class="cls-2" d="M169.21,284.73c-.58,4.32-1.12,8.69-1.56,13,0-1.07,0-2.14-.1-3.21-.39-8.74-.85-17.48-1.31-26.2,0-.19-.31-.15-.31,0-.16,15.49-.47,31-.67,46.47s-.41,30.86-1.38,46.32c-.54,8.76-1.08,17.6-2.31,26.32a.16.16,0,1,0,.31,0c1.25-7.7,2.61-15.37,3.39-23.11s1.6-15.39,2-23.1q.92-17.46.58-34.85a205.17,205.17,0,0,0,1.81-21.72C169.79,284.47,169.3,284.46,169.21,284.73Z"/><path class="cls-2" d="M109.81,252.08q-5.09,12.46-10,25.1c.68-3.89,1.51-7.73,2.32-11.56,0-.26-.34-.41-.44-.15a58.05,58.05,0,0,0-3,14.74c-5.67,15-10.91,30.23-15.51,45.62-7.43,24.88-13.32,50.38-15.64,76.26a212.73,212.73,0,0,0,0,43.26.19.19,0,1,0,.37,0,363.85,363.85,0,0,1,1.53-38.78,355.46,355.46,0,0,1,5.85-38.1,628.4,628.4,0,0,1,21.21-74.53c4.72-13.85,9.46-27.68,14-41.56C110.7,251.89,109.93,251.64,109.81,252.08Z"/><path class="cls-13" d="M77.57,467.51c27.15,28.27,139.92,17.33,212.13-1.69,13.76-3.64-26.25-126.31-40.41-120.78C168.41,376.48,47.67,436.49,77.57,467.51Z"/><path class="cls-3" d="M389.14,344.19c-.57,13.58-8.87,11.73-8.87,11.73s7.77,5.31,9.55,14.17c2.05,10.18-13,17.8-13,17.8a31,31,0,0,1,7.7,16.56c1,9.9-13.07,19.79-13.07,19.79s2.7,10-2.41,18.82c-8.72,15.1-89.94,28.73-111.78,29.88L236.79,350.86s73.88-39.17,93.91-37.25C347.57,315.24,390,323.4,389.14,344.19Z"/><path class="cls-2" d="M380,355.51c-17.53-6-36.45-7.86-54.74-9.4a.32.32,0,0,0-.24.39.31.31,0,0,0,.24.24c18.21,1.34,36.5,7.56,54.61,9.62a.44.44,0,0,0,.13-.85Z"/><path class="cls-2" d="M376.43,386.5a47,47,0,0,0-12.56-1.31c-4.48-.17-9-.24-13.42-.25-9,0-17.94.17-26.88.62a.32.32,0,1,0,0,.63q13.4,0,26.78.61,6.78.31,13.41.73a58.06,58.06,0,0,0,12.64.19.64.64,0,0,0,0-1.22Z"/><path class="cls-2" d="M371.15,424.22c-3.39-1.22-7.78-.63-11.38-.56q-6.12.1-12.25.15c-8.17,0-16.33.12-24.49-.1a.32.32,0,1,0,0,.63c8.3.27,16.58.66,24.88.85q6.1.15,12.21.22c3.48,0,7.79.49,11.1-.76a.23.23,0,0,0,.06-.33A.22.22,0,0,0,371.15,424.22Z"/><path class="cls-4" d="M240.87,344.14l22.37,136.59S86.35,504,72.79,461.37,240.87,344.14,240.87,344.14Z"/><path class="cls-5" d="M195.46,432.06a4.76,4.76,0,0,1-2.12-.73,4,4,0,0,1-1.83-3.39,5.2,5.2,0,0,0-3.4-4.79,5.33,5.33,0,0,0-2.8-.15c-.83.15-1.69.27-2.54.47a22.39,22.39,0,0,0,2.54.51,5.55,5.55,0,0,1,2.13.68,4,4,0,0,1,2,3.4,5.09,5.09,0,0,0,3.17,4.83,5,5,0,0,0,2.86.33c.83-.21,1.69-.33,2.56-.53A10.57,10.57,0,0,0,195.46,432.06Zm42.43,41.7a5.11,5.11,0,0,1-2.12-.66,4.06,4.06,0,0,1-1.84-3.4,5.19,5.19,0,0,0-3.39-4.78,4.79,4.79,0,0,0-2.8-.21c-.83.21-1.7.32-2.56.53a22.29,22.29,0,0,0,2.56.51,5.31,5.31,0,0,1,2.12.63,4,4,0,0,1,2,3.39,5.1,5.1,0,0,0,3.17,4.89,5,5,0,0,0,2.85.27,23.07,23.07,0,0,0,2.61-.63c-.91-.22-1.69-.32-2.57-.54ZM132.57,405.47a5.47,5.47,0,0,1-2.14-.71,4,4,0,0,1-1.81-3.4,4.54,4.54,0,0,0-.14-1.1l-1.93,1.19a5.08,5.08,0,0,0,3.17,4.8,4.88,4.88,0,0,0,2.85.27c.86-.13,1.71-.31,2.55-.52-.87-.26-1.7-.36-2.53-.53Zm114.24-25-1.32-.22a4.14,4.14,0,0,1-2.09-.73,3.87,3.87,0,0,1-1.81-3.39,5.29,5.29,0,0,0-3.4-4.79,5.55,5.55,0,0,0-2.86-.15c-.84.15-1.7.26-2.55.46a22.19,22.19,0,0,0,2.55.53,4.92,4.92,0,0,1,2.18.67,3.92,3.92,0,0,1,1.92,3.4,5.23,5.23,0,0,0,3.18,4.83,4.84,4.84,0,0,0,2.86.31c.48-.12.95-.19,1.41-.27ZM187,472.31a16.85,16.85,0,0,0-.53-2.54c-.2.83-.3,1.7-.51,2.54a5.46,5.46,0,0,1-.62,2.13,3.87,3.87,0,0,1-3.4,1.93,5.32,5.32,0,0,0-4.89,3.23,4.79,4.79,0,0,0-.27,2.8,22.86,22.86,0,0,0,.53,2.59,25.8,25.8,0,0,0,.52-2.59,4.52,4.52,0,0,1,.73-2.08,3.86,3.86,0,0,1,3.4-1.83,5.18,5.18,0,0,0,4.73-3.39,4.94,4.94,0,0,0,.33-2.79ZM94.81,435.12c-.2-.89-.3-1.7-.52-2.55a18.56,18.56,0,0,0-.51,2.55,4.61,4.61,0,0,1-.68,2.13,3.78,3.78,0,0,1-3.39,1.92,5.29,5.29,0,0,0-4.84,3.23,4.91,4.91,0,0,0-.27,2.86c.17.84.27,1.7.52,2.55.21-.88.31-1.7.53-2.55a4.39,4.39,0,0,1,.68-2.13,3.86,3.86,0,0,1,3.39-1.82,5.19,5.19,0,0,0,4.79-3.39,5.47,5.47,0,0,0,.32-2.8Zm98.43-55a4.84,4.84,0,0,1-2,1,4,4,0,0,1-3.68-1.13,5.08,5.08,0,0,0-5.79-1,5.34,5.34,0,0,0-2.12,1.88c-.47.68-1,1.34-1.46,2.12a19.67,19.67,0,0,0,2.19-1.44,6.8,6.8,0,0,1,2-1.05,4,4,0,0,1,3.75,1,5.1,5.1,0,0,0,7.2.2,5.65,5.65,0,0,0,.71-.83c.46-.73,1-1.41,1.39-2.19-.69.42-1.34.93-2.07,1.46Zm59.87,39a4.07,4.07,0,0,1-3.39-1.19,5.19,5.19,0,0,0-5.72-1,4.74,4.74,0,0,0-2.14,1.87A22.38,22.38,0,0,0,240.4,421c.78-.47,1.46-1,2.19-1.46a4.93,4.93,0,0,1,2-1.08,3.89,3.89,0,0,1,3.69,1,5.37,5.37,0,0,0,5.09,1.39Zm-102.26,28a5.19,5.19,0,0,1-2,1,4.06,4.06,0,0,1-3.68-1.15,5.19,5.19,0,0,0-5.77-1,5.1,5.1,0,0,0-2.14,1.87c-.47.73-1,1.41-1.46,2.14.78-.43,1.46-.94,2.19-1.41a5.3,5.3,0,0,1,2-1.09,4,4,0,0,1,3.75,1,5.25,5.25,0,0,0,5.67,1.18,5.56,5.56,0,0,0,2.24-1.81c.46-.73,1-1.41,1.41-2.19A14.77,14.77,0,0,0,150.85,447.15Z"/><path class="cls-2" d="M217.73,363.84c4.29,59.4,11.33,101.06,12.88,109a.17.17,0,0,0,.17.17.18.18,0,0,0,.17-.17c-2-41.68-11.51-105.35-12.53-109.1A.35.35,0,0,0,217.73,363.84Z"/><path class="cls-2" d="M242.91,347.75c-.49-1.57-1.32-6-2.09-5.75-2.66,1-5.39,1.85-8.06,2.89l-7.55,3q-7.68,3.15-15.27,6.58-15.1,6.79-29.78,14.31t-28.85,16c-9.46,5.56-18.82,11.37-27.82,17.63l-1.69,1.19a63,63,0,0,0-11.19,3.29c-4.21,1.7-8.25,3.7-12.27,5.79a.15.15,0,0,0,0,.21.16.16,0,0,0,.18.06A91.06,91.06,0,0,1,111,408.08l7.72-2.36c-8.57,6-17.07,12.17-25.19,18.79-.15.14,0,.34.21.24,9.18-6.23,18.29-12.59,27.71-18.48s18.67-11.64,28.19-17.16c18.94-11,38.32-21.14,58.22-30.27q8.34-3.84,16.77-7.42c2.87-1.2,5.75-2.44,8.64-3.63,2.47-1,4.37-1.94,6.78-3,.39,1.13.75,2.15,1.12,3.29S243.37,349.18,242.91,347.75Z"/><path d="M259.23,102.2c-5.11,8.92-10.45,17.4-4.74,30.24,4,9.05,17.39,18,17.39,18l16.58-3.82s7-12.25,5.17-24.69c-2-13.25-16.8-23-16.8-23Z"/><path d="M265.43,146.23c-3.17,9.12-6.62,17.67,0,29.06,4.68,8,17.36,14.76,17.36,14.76l13.73-5.63s4.36-12.37,1.1-23.88C294.23,148.32,280.09,141,280.09,141Z"/><path d="M282.25,188.73c.32,9.64.17,18.87,10.45,27.15,7.26,5.79,21.5,7.53,21.5,7.53L325,213.23s-.38-13.12-7.56-22.67c-7.6-10.18-23.38-12-23.38-12Z"/><path d="M314.2,223.36s-2,16.58,11.39,27.16,47.14,4.12,47.14,4.12-11.44-4.14-15.9-13.58S345.7,212.86,325,213.18Z"/><rect class="cls-9" x="307.29" y="216.19" width="27.15" height="8.69" transform="translate(-62.96 285.86) rotate(-44.16)"/><path class="cls-5" d="M167.05,170.54c-21.22,9.28-10.31,37.19.82,50.91,12.56,15.35,33.74,24.77,40.34,21.53s-.53-23.5-.53-23.5,13.37,15,18.11,13.28-.61-29.56-13.58-43.73C198.2,173.54,179.39,165.14,167.05,170.54Z"/><path class="cls-3" d="M158,186.69c2.5,4.07,22.82,35.24,45.59,35.4,7.41,0,9.5-36.9,9.5-36.9l.82-2.69,11.74-37.74-54.3-35.44S153.75,179.75,158,186.69Z"/><path class="cls-2" d="M166.82,128.42a122.52,122.52,0,0,0,3.91,13.73c10.35,30.58,29.65,39.67,42.77,42.17l.55-1.79,11.73-37.72-54.31-35.44S169.3,117.42,166.82,128.42Z"/><path d="M150.27,112.37c-7.61,7.41-15.23,14.16-13.57,27.92,1.19,9.73,11.36,21.62,11.36,21.62l17.12.45s10.38-10,12.32-22.48c2.07-13.23-9.29-26.31-9.29-26.31Z"/><path d="M158.54,157.3c-5.54,7.91-11.19,15.27-7.9,27.95,2.33,9,12.68,18.94,12.68,18.94l14.75-1.7s7.57-10.72,7.57-22.67c0-12.7-11.54-23.62-11.54-23.62Z"/><path d="M163.15,202.78c-2.32,9.37-5,18.21,2.68,28.85,5.42,7.55,18.67,13.12,18.67,13.12l13.15-6.88s3.21-12.72-1.1-23.87c-4.55-11.88-19.25-17.89-19.25-17.89Z"/><path d="M184.48,244.8S178,260.19,188,274.05s44.24,16.8,44.24,16.8-9.88-7.09-11.59-17.44-3.12-30.17-23-35.49Z"/><rect class="cls-9" x="178.06" y="239.54" width="27.15" height="8.69" transform="translate(-92.87 120.35) rotate(-28.37)"/><path class="cls-3" d="M292.13,83.24a113.92,113.92,0,0,1,.29,35.22c-.18,1.09-.37,2.17-.6,3.25-7.21,35.28-49.18,56.59-85.95,44.19-52.23-17.62-73.68-97.64-41.47-137.56a56.89,56.89,0,0,1,7.93-8,59.07,59.07,0,0,1,10.85-7.16,74.89,74.89,0,0,1,20.64-6.89C256-3.44,285.36,40.38,292.13,83.24Z"/><path class="cls-2" d="M271.33,72.58a50.51,50.51,0,0,1-5.49-.54,9.57,9.57,0,0,1-5.5-1.51,2.42,2.42,0,0,1-.35-3.16,7.44,7.44,0,0,1,6.77-2.15A10.82,10.82,0,0,1,273.6,68a2.6,2.6,0,0,1-.21,3.9A3.23,3.23,0,0,1,271.33,72.58Z"/><path class="cls-2" d="M217.71,77.6c1.78-.43,3.54-.94,5.26-1.54a9.13,9.13,0,0,0,5-2.5,2.41,2.41,0,0,0-.31-3.19,7.57,7.57,0,0,0-7.1-.86,10.44,10.44,0,0,0-6.12,3.93,2.65,2.65,0,0,0,1.05,3.82A3.41,3.41,0,0,0,217.71,77.6Z"/><path d="M225.26,87.43c-8.81.4-7.3,16.41.86,16.07S232.63,87.09,225.26,87.43Z"/><path class="cls-14" d="M221.83,88.54c-1.44,1-2.79,2.75-4.63,3-2.13.36-3.91-1.18-5.44-2.69-.18-.15-.31,0-.29.21.23,3.07,1.84,6.12,5.47,6.3,3.33.16,5.44-2.75,6-5.89C223.08,88.93,222.46,88.22,221.83,88.54Z"/><path d="M266.11,83c8.7-1.23,10.76,14.75,2.7,15.87S258.82,84,266.11,83Z"/><path class="cls-14" d="M269.89,83.61c1.5.7,3.07,2.09,4.73,2s3.11-2,4.12-3.77c0-.18.26,0,.3.15.49,3-.22,6.33-3.35,7.28s-5.35-1.55-6.55-4.5C268.93,84.24,269.3,83.33,269.89,83.61Z"/><path class="cls-2" d="M233.72,134.61c1.52,1.43,3,3.39,5.36,3.57a17.67,17.67,0,0,0,7-1.52c.18,0,.4.14.26.31a8.83,8.83,0,0,1-8.12,3.31,6.61,6.61,0,0,1-5-5.38A.32.32,0,0,1,233.72,134.61Z"/><path class="cls-2" d="M258.35,112.34a115.56,115.56,0,0,1,2.28,11.92c0,.36-.88.64-2.17.83h-.15A18.18,18.18,0,0,1,240,120a.42.42,0,0,1,.13-.57.38.38,0,0,1,.4,0,27.34,27.34,0,0,0,17.07,3.15c.16-1.08-3.73-13.79-3.13-13.79,2.59.17,7.18.86,8.88,1.12-1.11-5.26-5-20.06-7.08-29.66-.11-.59.79-.89,1-.34a261.23,261.23,0,0,1,10.35,32.92C267.79,113.68,260,112.85,258.35,112.34Z"/><path class="cls-2" d="M258.23,122a25.67,25.67,0,0,1-9,9.33,12.18,12.18,0,0,1-7,1.58c-5.33-.44-6.25-4.86-6-8.83a25.38,25.38,0,0,1,1.26-6.21A35.4,35.4,0,0,0,258.23,122Z"/><path class="cls-15" d="M249.33,131.23a12.18,12.18,0,0,1-6.88,1.85c-5.34-.24-6.46-4.62-6.39-8.59C241.56,123.9,247.72,126.3,249.33,131.23Z"/><path d="M162.26,105.27C176.71,106.77,180,76.54,180,76.54s61.39-10.19,66-56c0,0,10.93,29,43.32,41.87,0,0,2.93-55.83-46.47-59.36,0,0-61.55-15.69-91.39,23.78S152.56,104.29,162.26,105.27Z"/><path d="M246.18,17.2a45.38,45.38,0,0,1-2.46,20.89,50.85,50.85,0,0,1-11.37,18.6,53.32,53.32,0,0,1-4.1,3.84l-2.11,1.78c-.75.58-1.53,1.11-2.33,1.65-1.59,1-3.11,2.14-4.73,3.14A52.09,52.09,0,0,1,214,69.69c-.86.41-1.68.85-2.56,1.23l-2.7,1-5.38,2c-3.69,1-7.45,1.79-11.19,2.56,3.53-1.45,7.12-2.56,10.57-4l5.06-2.32L210.29,69c.81-.44,1.57-.94,2.37-1.41,1.57-.94,3.13-1.87,4.71-2.76a49.42,49.42,0,0,0,4.38-3.18L223.93,60l1.95-1.78a41.36,41.36,0,0,0,3.91-3.68,58.49,58.49,0,0,0,11.48-17.32,62.62,62.62,0,0,0,5-20.08Z"/><path class="cls-16" d="M220.91,121.66c-15.43,0-28-11.39-28-25.48s12.47-25.53,27.91-25.55c12.77,0,23.94,7.88,27.11,19.18h0c3.83,13.66-5.21,27.56-20.17,31.05A30.92,30.92,0,0,1,220.91,121.66Zm0-47.63c-13.37,0-24.2,9.9-24.2,22.11s10.86,22.09,24.23,22.09,24.21-9.91,24.2-22.12a20.21,20.21,0,0,0-.76-5.46C241.66,80.82,231.94,74,220.84,74Z"/><path class="cls-16" d="M282.15,114.43c-10.7,0-20.42-10-22.14-23.21a28.09,28.09,0,0,1,3.56-18.36c4-8,14.27-11.54,23-7.92a17.33,17.33,0,0,1,6.56,4.71,29.26,29.26,0,0,1,8.17,17.09c1.82,14-5.86,26.33-17.36,27.58A16,16,0,0,1,282.15,114.43ZM279.23,67c-.47,0-1,0-1.42,0a14.86,14.86,0,0,0-11,7.52,25.08,25.08,0,0,0-3.1,16.28c1.58,12.09,10.44,21.12,19.83,20.1s15.64-11.69,14.08-23.79a25.89,25.89,0,0,0-7.2-15.16,16.05,16.05,0,0,0-11.19-5Z"/><path class="cls-16" d="M247.67,92.81l-2.37-2c3.19-3.1,10.91-7.65,17.37-2.69l-2,2.19C254.94,85.88,248,92.52,247.67,92.81Z"/><path class="cls-16" d="M135.47,110.59l-3-1c.51-1.27,5.25-12.32,12.09-14.12,6.42-1.66,48.89-2.63,50.62-2.66v2.87C183.07,96,150.35,97,145.4,98.23,140.94,99.41,136.72,107.55,135.47,110.59Z"/><path class="cls-3" d="M172.65,107.25s-19-21.82-30-15.52,4.38,38.64,18,42.4c7,2.4,14.82-.84,17.44-7.24.06-.13.11-.26.16-.4Z"/><path class="cls-2" d="M147.36,100.89a.19.19,0,0,0-.13.23.21.21,0,0,0,.13.11c9.56,2.93,15,10.55,19,18.55-3-3-6.89-4.52-11.31-1.25-.23.18,0,.5.28.45a8.88,8.88,0,0,1,9.35,2.14,36.67,36.67,0,0,1,4.83,6.52c.49.73,1.95.25,1.58-.61v-.2C170.46,116,160.19,101.29,147.36,100.89Z"/></g></g></g></svg>