<svg xmlns="http://www.w3.org/2000/svg" viewBox="0 0 485 510"><defs><style>.cls-1{fill:#80cff4;}.cls-2{font-size:30px;letter-spacing:-0.1em;}.cls-2,.cls-21,.cls-25,.cls-27,.cls-8{fill:#fff;}.cls-2,.cls-24,.cls-25,.cls-26,.cls-27{font-family:GyeonggiTitleV;}.cls-3{fill:#fefbe5;}.cls-4{fill:#1d688d;}.cls-5{fill:#263339;}.cls-6{fill:#d3766a;}.cls-29,.cls-7{fill:#ed6e1c;}.cls-9{fill:#8d4214;}.cls-10{fill:#465b65;}.cls-11{fill:#dbdbdb;}.cls-12{fill:#ebebeb;}.cls-13{fill:#f5a9a0;}.cls-14{fill:#bcd4e4;}.cls-15{fill:#5cb5e1;}.cls-16{fill:#f299bb;}.cls-17{fill:#f8c2c0;}.cls-18{fill:#75b7e5;}.cls-19{fill:#37474f;}.cls-20{opacity:0.19;}.cls-21,.cls-28,.cls-29,.cls-30,.cls-31{fill-rule:evenodd;}.cls-22{fill:#f39436;}.cls-23{fill:#3aaa35;stroke:#2fac66;stroke-miterlimit:10;opacity:0.83;}.cls-24,.cls-25{font-size:64.9px;letter-spacing:-0.1em;}.cls-24,.cls-26{fill:#29235c;}.cls-26,.cls-27{font-size:59.45px;letter-spacing:-0.1em;}.cls-28{fill:#97d4e2;}.cls-30{fill:#44bedf;}.cls-31{fill:#0e5666;}.cls-32{font-size:12px;fill:#edece0;font-family:NanumPen, Nanum Pen Script;letter-spacing:0em;}</style></defs><g id="Layer_1" data-name="Layer 1"><rect class="cls-1" width="485" height="510"/><text class="cls-2" transform="translate(50.66 57.42)">μ¤λ§νΈν•</text></g><g id="Layer_2" data-name="Layer 2"><g id="freepik--background-complete--inject-701"><polygon class="cls-3" points="376.02 259.09 377.81 262.71 381.84 263.29 378.93 266.1 379.61 270.07 376.02 268.19 372.42 270.07 373.11 266.1 370.2 263.29 374.22 262.71 376.02 259.09"/><polygon class="cls-3" points="92.22 239.16 94.02 242.78 98.04 243.35 95.13 246.16 95.81 250.14 92.22 248.26 88.61 250.14 89.3 246.16 86.39 243.35 90.41 242.78 92.22 239.16"/><polygon class="cls-3" points="404.54 240.56 405.66 242.79 408.14 243.15 406.34 244.88 406.77 247.34 404.54 246.17 402.32 247.34 402.75 244.88 400.94 243.15 403.43 242.79 404.54 240.56"/><polygon class="cls-3" points="132.4 221.92 133.51 224.16 136 224.51 134.2 226.25 134.63 228.71 132.4 227.54 130.17 228.71 130.6 226.25 128.8 224.51 131.29 224.16 132.4 221.92"/><polygon class="cls-3" points="393.62 221.58 394.3 222.95 395.84 223.17 394.73 224.25 394.99 225.76 393.62 225.04 392.24 225.76 392.51 224.25 391.4 223.17 392.93 222.95 393.62 221.58"/><polygon class="cls-3" points="109.66 182.05 110.34 183.44 111.87 183.66 110.76 184.74 111.02 186.25 109.66 185.53 108.28 186.25 108.54 184.74 107.43 183.66 108.96 183.44 109.66 182.05"/></g><g id="freepik--Shadows--inject-701"><ellipse class="cls-4" cx="230.53" cy="464.1" rx="108.06" ry="16.91"/><ellipse class="cls-4" cx="125.64" cy="472.28" rx="100.96" ry="15.79"/><ellipse class="cls-4" cx="349.61" cy="472.28" rx="100.96" ry="15.79"/></g><g id="freepik--Floor--inject-701"><polygon class="cls-5" points="23.21 413.71 76.82 413.48 130.42 413.4 237.63 413.25 344.84 413.4 398.44 413.48 452.04 413.71 398.44 413.93 344.84 414.01 237.63 414.17 130.42 414.01 76.82 413.93 23.21 413.71"/></g><g id="freepik--character-2--inject-701"><path class="cls-6" d="M274.85,316.67c1.22,3.51-.11,9.15,2.67,9,2.47-.08,3-4.05,3-4.05s.86,4.67,3.49,3.83,2.34-5.3,2.34-5.3.54,3.91,3.11,2.9,3-4.87,3-4.87.92,1,2.42-.51c2.14-2.19,1.23-8.7-.06-12s-8.47-14.39-9.6-16.08l-21.4,8s-.44,6.9-.22,10.42,4.16,14.94,7.09,14.17,0-8.8-.29-10.92.17-2.54,1-1.68A45.69,45.69,0,0,1,274.85,316.67Z"/><path class="cls-5" d="M280.47,321.48c.35-5.59-.47-8.09-3.14-12.93-.05-.09.08-.2.14-.09,3,4.49,4.54,7.49,3.26,13.05C280.68,321.78,280.45,321.74,280.47,321.48Z"/><path class="cls-5" d="M286.29,320.44c-.14-5.84-1-8.56-3.42-13.83,0-.08.08-.14.13-.07,2.77,5,4.22,8,3.58,13.85C286.56,320.65,286.3,320.71,286.29,320.44Z"/><path class="cls-5" d="M292.43,318.17c-.54-5.63-1.36-8.66-4.37-13.48a.1.1,0,0,1,0-.14.1.1,0,0,1,.14,0,18.5,18.5,0,0,1,4.38,13.57C292.59,318.5,292.47,318.5,292.43,318.17Z"/><path class="cls-6" d="M249.44,223.44c14.43,17.68,34,61,36.29,67.18,1.59,4.19-20.59,13-21.25,10-.83-3.84-15.34-51.7-18.75-69.54C243.88,221.17,246.45,219.79,249.44,223.44Z"/><path class="cls-7" d="M245.56,235.56c2.37,16.33,16.55,61.65,16.55,61.65l16.81-6.33,8.49-3.21s-24-45.25-34.13-60.24c-.79-1.15-1.51-2.15-2.18-3C244.73,216.42,243.73,223,245.56,235.56Z"/><path class="cls-8" d="M279,283a7.07,7.07,0,0,1,0-3.54A6.85,6.85,0,0,1,279,283Z"/><path class="cls-8" d="M248.49,225.87a6.31,6.31,0,0,1-.23-1.78,6.17,6.17,0,0,1,.23-1.76,6.54,6.54,0,0,1,.23,1.76A6.69,6.69,0,0,1,248.49,225.87Z"/><path class="cls-8" d="M267.3,274a6.93,6.93,0,0,1,3.56,0A7.15,7.15,0,0,1,267.3,274Z"/><path class="cls-8" d="M258.57,251.36a7.23,7.23,0,0,1,3.58,0,5.68,5.68,0,0,1-1.79.23A6,6,0,0,1,258.57,251.36Z"/><path class="cls-8" d="M272.13,264.33a6.54,6.54,0,0,1-1.42-1.09,5.77,5.77,0,0,1-1.1-1.41A7.1,7.1,0,0,1,272.13,264.33Z"/><path class="cls-8" d="M254.43,236.58a6.87,6.87,0,0,1-1.42-1.09,6,6,0,0,1-1.1-1.41,7.07,7.07,0,0,1,2.52,2.5Z"/><path class="cls-8" d="M259.74,282.25a7.08,7.08,0,0,1-2.54-2.5,6.35,6.35,0,0,1,1.44,1.09A7.22,7.22,0,0,1,259.74,282.25Z"/><path class="cls-8" d="M260.36,263.6a6.84,6.84,0,0,1-1.1,1.42,6.68,6.68,0,0,1-1.43,1.09A6.85,6.85,0,0,1,260.36,263.6Z"/><path class="cls-8" d="M271.47,288.31a6.87,6.87,0,0,1-2.52,2.5,6.59,6.59,0,0,1,1.1-1.42A6.5,6.5,0,0,1,271.47,288.31Z"/><path class="cls-8" d="M253.16,242.84a6.94,6.94,0,0,1-2.52,2.5A7.1,7.1,0,0,1,253.16,242.84Z"/><path class="cls-5" d="M261.18,292.32c10-4.66,21.17-8,23.1-8.77a.07.07,0,0,1,.1.05.07.07,0,0,1-.05.09h0c-1.91.63-14.28,5.87-23.11,8.79C261.12,292.51,261.09,292.37,261.18,292.32Z"/><path class="cls-9" d="M277.29,291.49l-15.18,5.72s-14.18-45.32-16.55-61.65c-1.2-8.24-1.18-13.91.77-14.56Z"/><path class="cls-6" d="M233.53,416.63v33.78c0,6.45.05,12.12.37,15a0,0,0,0,0,0,.05,4.52,4.52,0,0,0,.47,2h0c1.93,1.31,54,3.08,55.87,2.53s.42-5.77-1.55-7.44-21.62-11.17-21.62-11.17l-.33-33.75Z"/><path class="cls-10" d="M233.53,443.47v6.94c0,6.45.06,12.12.37,15v.05a8.7,8.7,0,0,0,.48,2h0c1.93,1.31,54,3.08,55.87,2.53s.42-5.77-1.55-7.44-21.62-11.17-21.62-11.17l.1-7Z"/><path class="cls-10" d="M290.31,470.07c-1.85.55-53.94-1.22-55.88-2.54-.75-.48-.92-8-.92-17.12v-.28l33.62.76v.56s19.64,9.51,21.62,11.18S292.16,469.54,290.31,470.07Z"/><path class="cls-5" d="M289.78,468.05c-8.78-.51-44.22-1.75-52.93-1.6-.07,0-.07.05,0,.06,8.69.69,44.14,1.64,52.93,1.68C290,468.19,290,468.06,289.78,468.05Z"/><path class="cls-5" d="M270,451.66c-3.43-.76-7.67-.38-10.4,2-.11.09,0,.24.14.21a48.37,48.37,0,0,1,10.2-1.73.22.22,0,1,0,.06-.44Z"/><path class="cls-5" d="M272.4,453.22c-3.44-.75-7.68-.37-10.41,2-.1.09,0,.23.14.21a48,48,0,0,1,10.24-1.75.22.22,0,1,0,0-.44Z"/><path class="cls-5" d="M274.84,454.79c-3.43-.75-7.68-.36-10.41,2-.1.09,0,.24.15.21a48.56,48.56,0,0,1,10.23-1.75.22.22,0,0,0,.24-.2.24.24,0,0,0-.21-.24Z"/><polygon class="cls-11" points="230.54 291.44 231.84 392.35 232.61 451.83 269.08 451.12 261.94 289.43 261.58 270.92 230.79 270.92 230.54 291.44"/><path class="cls-5" d="M267.55,445.08c-5.69,0-4.06-.1-9.76-.1-2.77,0-21.09.08-23.69.53,0,0-.06,0-.06.06a.06.06,0,0,0,.06.05c2.6.41,20.91,0,23.69,0,5.7-.12,4.06-.15,9.76-.33a.1.1,0,0,0,.1-.1.11.11,0,0,0-.1-.11Z"/><path class="cls-5" d="M251.31,297.68a.06.06,0,1,1,.12,0c0,9.43.29,18.87.52,28.31s.51,18.88.77,28.32c.52,18.86,1.29,37.72,2,56.58q.58,15.87,1.48,31.72c0,.07-.1.07-.11,0-1.38-18.84-2.71-37.68-3.46-56.56s-1.3-37.73-1.4-56.6C251.18,318.86,251.33,308.27,251.31,297.68Z"/><polygon class="cls-5" points="230.54 291.44 231.84 392.35 256.29 270.92 230.79 270.92 230.54 291.44"/><path class="cls-6" d="M226.27,417.63l-4.35,32.2c0,6.46-.2,12.12-.55,15.05a0,0,0,0,1,0,0,4.6,4.6,0,0,1-.49,2v0c-1.95,1.29-54.07,2.46-55.9,1.89s-.35-5.77,1.63-7.42,21.75-10.93,21.75-10.93l5.47-33.72Z"/><path class="cls-10" d="M222.47,443c-.34,4-.57,6.89-.57,6.91,0,6.46-.2,12.12-.55,15.05a0,0,0,0,1,0,0,8,8,0,0,1-.49,2v0c-2,1.29-54.07,2.46-55.9,1.9s-.35-5.78,1.63-7.42,21.75-10.93,21.75-10.93l.65-7.12Z"/><path class="cls-10" d="M164.91,468.85c1.85.57,54-.6,55.91-1.89.75-.49,1-8,1.08-17.13v-.28l-33.63.38v.57s-19.75,9.28-21.75,10.93S163.07,468.29,164.91,468.85Z"/><path class="cls-5" d="M165.46,466.84c8.78-.42,44.23-1.25,52.94-1,.07,0,.07.05,0,.05-8.7.6-44.16,1.16-53,1.09C165.27,467,165.27,466.85,165.46,466.84Z"/><path class="cls-5" d="M184.52,450.12c3.45-.72,7.69-.29,10.39,2.09.1.09,0,.24-.15.2a49,49,0,0,0-10.21-1.83.24.24,0,0,1-.25-.22.23.23,0,0,1,.22-.24Z"/><path class="cls-5" d="M182.07,451.66c3.44-.72,7.68-.29,10.37,2.09.12.1,0,.24-.13.21a49.25,49.25,0,0,0-10.22-1.83.24.24,0,0,1-.25-.22A.25.25,0,0,1,182.07,451.66Z"/><path class="cls-5" d="M179.61,453.21c3.44-.72,7.68-.29,10.38,2.09.1.09,0,.24-.14.21a48.6,48.6,0,0,0-10.22-1.83.25.25,0,0,1-.25-.23A.24.24,0,0,1,179.61,453.21Z"/><path class="cls-11" d="M258.45,270.92h0c-.13.63-2.28,10.52-4.52,19-1.62,6.21-3.29,11.67-4.25,12.23s-6.38,2.95-8.15,3.66l-8.09,76.64-10.85,68.94-36.38-1.89,29.17-178.6Z"/><path class="cls-5" d="M222.4,444.85c-5.69-.37-4.05-.34-9.73-.64-2.78-.15-21.07-1.11-23.69-.8a.06.06,0,0,0-.06.06.06.06,0,0,0,.06,0c2.58.55,20.88,1.19,23.66,1.28,5.69.2,4.06.08,9.75.21a.09.09,0,0,0,.09-.08A.09.09,0,0,0,222.4,444.85Z"/><path class="cls-5" d="M201.58,425.2q1.33-7.38,2.69-14.77l5.55-29.54q5.6-29.55,11.09-59.13c2.05-11.15,2-10.07,3.78-21.28,0-.08.14-.07.13,0-1.72,9.93-.92,7.76-2.52,17.71s-3.31,19.7-5.1,29.53c-3.57,19.75-7.32,39.46-11.09,59.17q-1.59,8.3-3.23,16.56c-1.11,5.64-2.38,11.23-3.55,16.85,0,.13-.22.11-.2,0C199.88,435.27,200.66,430.22,201.58,425.2Z"/><path class="cls-5" d="M211.4,301.21c.92-.24,2-.32,2.94-.47.78-.13,1.57-.26,2.35-.43a10.45,10.45,0,0,0,4.13-1.72,9.87,9.87,0,0,0,2.68-4.13c.39-.91.78-1.83,1.19-2.68.19-.43.39-.86.59-1.29A15.52,15.52,0,0,0,226,289c0-.09.15,0,.11,0a10.8,10.8,0,0,0-.32,1.11c-.11.37-.26.92-.4,1.3-.24.78-.48,1.55-.73,2.32a18.55,18.55,0,0,1-1.66,4.05c-1.44,2.27-4,3.18-6.57,3.5-.73.09-1.48.14-2.22.19a18.3,18.3,0,0,1-2.77,0C211.29,301.45,211.24,301.24,211.4,301.21Z"/><path class="cls-5" d="M252.49,300.79a68.15,68.15,0,0,0-10.91,5,.12.12,0,1,0,.11.22c3.69-1.56,7.39-3.06,11-4.81a.23.23,0,0,0,.08-.33A.24.24,0,0,0,252.49,300.79Z"/><path class="cls-5" d="M253.59,275.88c0-.13-.23-.16-.23,0a120.07,120.07,0,0,1-.62,12.14c-.17,1.88-1.69,12.23-5,11.48-.55-.13-.83-.66-.93-1.49a13.61,13.61,0,0,1,.44-3.17c.37-2.17.65-4.34.85-6.53a59,59,0,0,0-.14-12.25.11.11,0,0,0-.14-.07.12.12,0,0,0-.07.07,109.85,109.85,0,0,1-1,16.91c-.41,2.69-1.78,6.75,1.06,7.17s4.78-6.41,5.13-8.24A61,61,0,0,0,253.59,275.88Z"/><path class="cls-5" d="M247.86,299.75a18.18,18.18,0,0,0-.74,2.15,4.88,4.88,0,0,0-.3,1.77c0,.11.16.12.22,0a6.27,6.27,0,0,0,.76-1.64c.24-.66.5-1.32.73-2a.36.36,0,0,0-.23-.47A.37.37,0,0,0,247.86,299.75Z"/><path class="cls-10" d="M210.32,288.06c.13.14,54.88-1.58,55.36-2.14.66-.82-11.09-54.65-20.33-66.05-2.33-2.85-10.17-3.66-13.25-.46-8.92,9.15-10.52,15.72-12.66,21.82a173.51,173.51,0,0,0-4.94,20C211.87,274.18,209.85,287.56,210.32,288.06Z"/><path class="cls-8" d="M248.8,275.24a6.24,6.24,0,0,1-.23-1.77,5.79,5.79,0,0,1,.23-1.76,6.82,6.82,0,0,1,0,3.53Z"/><path class="cls-8" d="M242.43,250.42a7,7,0,0,1-.23-1.76,7.12,7.12,0,0,1,.23-1.78,6,6,0,0,1,.24,1.78A5.84,5.84,0,0,1,242.43,250.42Z"/><path class="cls-8" d="M225.25,240.6a6.17,6.17,0,0,1-.23-1.76,6.31,6.31,0,0,1,.23-1.78,6,6,0,0,1,.23,1.78A6.17,6.17,0,0,1,225.25,240.6Z"/><path class="cls-8" d="M225.48,270.42a7.07,7.07,0,0,1,0-3.54,5.91,5.91,0,0,1,.24,1.77A6.63,6.63,0,0,1,225.48,270.42Z"/><path class="cls-8" d="M235.55,265.62a7.19,7.19,0,0,1,3.57,0A7,7,0,0,1,235.55,265.62Z"/><path class="cls-8" d="M222.84,251a7.23,7.23,0,0,1,3.58,0A7,7,0,0,1,222.84,251Z"/><path class="cls-8" d="M240.65,234.32a6,6,0,0,1,1.78-.23,5.68,5.68,0,0,1,1.79.23A7.19,7.19,0,0,1,240.65,234.32Z"/><path class="cls-8" d="M221.48,281.47a7,7,0,0,1,3.58,0A7.23,7.23,0,0,1,221.48,281.47Z"/><path class="cls-8" d="M246.06,284.32a6.75,6.75,0,0,1,1.79-.22,6.68,6.68,0,0,1,1.78.22,7,7,0,0,1-3.57,0Z"/><path class="cls-8" d="M238.6,281.47a6.09,6.09,0,0,1-1.43-1.09,6.53,6.53,0,0,1-1.1-1.41,6.09,6.09,0,0,1,1.43,1.09A6.53,6.53,0,0,1,238.6,281.47Z"/><path class="cls-8" d="M220,261.77a7,7,0,0,1-2.54-2.5,6.35,6.35,0,0,1,1.44,1.09A6.53,6.53,0,0,1,220,261.77Z"/><path class="cls-8" d="M249.75,259.64a7,7,0,0,1-2.53-2.51,6.3,6.3,0,0,1,1.43,1.09A6.13,6.13,0,0,1,249.75,259.64Z"/><path class="cls-8" d="M235.55,241.88a6.94,6.94,0,0,1-2.53-2.49,6,6,0,0,1,1.43,1.08A6.78,6.78,0,0,1,235.55,241.88Z"/><path class="cls-8" d="M259.74,282.25a7.08,7.08,0,0,1-2.54-2.5,6.35,6.35,0,0,1,1.44,1.09A7.22,7.22,0,0,1,259.74,282.25Z"/><path class="cls-8" d="M260.36,263.6a6.84,6.84,0,0,1-1.1,1.42,6.68,6.68,0,0,1-1.43,1.09A6.85,6.85,0,0,1,260.36,263.6Z"/><path class="cls-8" d="M233.93,256.42a6.94,6.94,0,0,1-2.52,2.5,6,6,0,0,1,1.1-1.41A6.87,6.87,0,0,1,233.93,256.42Z"/><path class="cls-8" d="M215.38,273.61a7.1,7.1,0,0,1-2.52,2.5A6.94,6.94,0,0,1,215.38,273.61Z"/><path class="cls-8" d="M253.16,242.84a6.94,6.94,0,0,1-2.52,2.5A7.1,7.1,0,0,1,253.16,242.84Z"/><path class="cls-8" d="M232.67,228.26a6.59,6.59,0,0,1-1.1,1.42,7.21,7.21,0,0,1-1.43,1.09,6.92,6.92,0,0,1,2.53-2.51Z"/><path class="cls-6" d="M242.67,226.69c-2.27.44-7.66-3.08-10-6.4a56.8,56.8,0,0,1-.19-6c-.06-1.92-.17-4-.42-6,0-.4,1.41.16,1.41.16l2.61.3,8.62,1a31,31,0,0,0-.25,7.58,4.33,4.33,0,0,0,.19.79v.13C245,219.78,246.21,226,242.67,226.69Z"/><path class="cls-5" d="M244.59,218.17v.13a7.55,7.55,0,0,1-1.26.22c-8.32.83-10.62-9.43-10.62-9.43l3.28-.27,8.63,1a30.54,30.54,0,0,0-.25,7.58A3.48,3.48,0,0,0,244.59,218.17Z"/><path class="cls-6" d="M229.74,192c-1.33,4.34,1,16.88,4.14,19.67,4.53,4,11.94,4.41,15.39-1,3.37-5.22,0-21.5-3.47-24C240.65,182.89,231.7,185.55,229.74,192Z"/><path class="cls-5" d="M240.93,198.73s-.06.05,0,.09c.22.83.32,1.83-.37,2.27v0C241.43,200.8,241.27,199.48,240.93,198.73Z"/><path class="cls-5" d="M240,198c-1.39.21-.88,2.93.4,2.75S241.14,197.86,240,198Z"/><path class="cls-5" d="M246,197.63s.07,0,.07.06c.13.86.43,1.83,1.25,1.94v.05C246.31,199.73,246,198.46,246,197.63Z"/><path class="cls-5" d="M246.54,196.61c1.36-.35,2,2.35.72,2.68S245.41,196.91,246.54,196.61Z"/><path class="cls-5" d="M238.65,197a8.1,8.1,0,0,0,1-.57,2,2,0,0,0,.93-.77.58.58,0,0,0-.22-.68,1.5,1.5,0,0,0-1.49.12,2.15,2.15,0,0,0-1.05,1.13.64.64,0,0,0,.41.79A.67.67,0,0,0,238.65,197Z"/><path class="cls-5" d="M247.3,195.37c-.39,0-.76-.05-1.15-.07A1.89,1.89,0,0,1,245,195a.6.6,0,0,1-.1-.72,1.49,1.49,0,0,1,1.39-.53,2.14,2.14,0,0,1,1.44.57.63.63,0,0,1,0,.88A.66.66,0,0,1,247.3,195.37Z"/><path class="cls-5" d="M241.61,206.71c.24.16.49.4.81.36a2.32,2.32,0,0,0,.87-.37h.05a1.18,1.18,0,0,1-1,.65.93.93,0,0,1-.8-.62S241.58,206.69,241.61,206.71Z"/><path class="cls-5" d="M242,204a3,3,0,0,0,2.18.91,3.37,3.37,0,0,0,1-.14.66.66,0,0,0,.2-.06l.18-.06a.2.2,0,0,0,.13-.22h0a.11.11,0,0,0,0-.08h0v-.08c-.1-.65-.35-1.63-.35-1.63.26.08,1.59.4,1.51.07a44.48,44.48,0,0,0-2.78-8.5.08.08,0,0,0-.15.05h0c.56,2.7,1.6,5.28,2.21,8a5.14,5.14,0,0,0-1.46-.15c-.08,0,.52,1.87.54,2.17h0a4.13,4.13,0,0,1-3.17-.37C242,203.89,242,204,242,204Z"/><path class="cls-5" d="M244.81,204.54a3.43,3.43,0,0,1-1.17,1.31,1.6,1.6,0,0,1-.93.24c-.71-.06-.85-.67-.82-1.23a3.62,3.62,0,0,1,.16-.86A4.64,4.64,0,0,0,244.81,204.54Z"/><path class="cls-5" d="M231.38,201.46c2.92-.47,2.66-5.81,2.66-5.81s4.89-1.58,5-5.43c0,0,5.24,2.28,8.77.36s2.09-6,1.54-6.82S247,184.9,247,184.9s-.6-2.33-1.28-2.47-1.15,1.39-1.15,1.39a31.71,31.71,0,0,0-9.43-.06c-4.36.79-5.84,5.49-5.84,5.49s-2.26.85-2.77,2.59S229.52,201.75,231.38,201.46Z"/><path class="cls-5" d="M232.87,195.88c3.95-.08,6.14-3,6.12-6.8m.07,0c.43,3.45-2.21,7.76-6.2,7a.11.11,0,0,1-.09-.1.1.1,0,0,1,.1-.09Z"/><path class="cls-5" d="M229.39,189.18s.08,0,0,.07a7.28,7.28,0,0,0-2.77,2.32c-.74,1.33-.29,2.85.26,4.14.86,2,2.38,4.57,4.45,5.49.12.05,0,.23-.1.18-2.46-1-4.32-4.28-5-6.69C225.44,192,226.93,190.15,229.39,189.18Z"/><path class="cls-5" d="M243.49,190.64a5.81,5.81,0,0,0,5.9-1c1.85-1.73,1-4-.16-5.79a.1.1,0,0,1,.15-.13c1.46,1.52,2,4.1.53,5.82s-4.48,2.2-6.54,1.37C243.17,190.82,243.32,190.57,243.49,190.64Z"/><path class="cls-6" d="M232.46,202.19s-3-4-4.78-2.94.45,6.88,2.65,7.63a2.23,2.23,0,0,0,2.91-1.15.36.36,0,0,1,0-.09Z"/><path class="cls-5" d="M228.39,200.9s0,0,0,.06a5.62,5.62,0,0,1,3,3.41,1.21,1.21,0,0,0-1.67-.41.94.94,0,0,0-.18.12s0,.08,0,.07a1.39,1.39,0,0,1,1.52.44,7.43,7.43,0,0,1,.75,1.19c.07.13.31.06.26-.1h0C232.08,203.72,230.48,201.05,228.39,200.9Z"/><path class="cls-12" d="M244.79,218.92l-2.22,7.6-10.1-8.33-2.3,3.22s10.46,13.79,10.44,13.13l2.41-6.6,4.83,3.94-1.47-11Z"/><path class="cls-5" d="M247.43,226.42c-.3-1.83-.56-3.66-.92-5.41,0-.06-.12-.08-.12,0-.19,1.79,1,8.67,1.16,10.33h0c-.2-.17-4.45-3.45-4.49-3.38-.55,1.06-2.32,5.86-2.43,6.29-1.65-2.19-8.6-10.78-10.51-12.81-.05-.05-.14,0-.1.07,1.5,2.35,10.51,13.73,10.61,13.66a69.07,69.07,0,0,0,2.51-7c.74.75,5.08,4.49,5.06,4.21A54.93,54.93,0,0,0,247.43,226.42Z"/><path class="cls-6" d="M223.29,226.64c-4.47-4.58-14.62-21.57-14.39-31.57.16-7.81,4.18-29.35,6.64-34.85,1.11-2.5,17.87,8.29,18,11.21s-6.46,21.15-7.24,25.7c-.37,2.15,1,13.2,4.31,23.27C233.57,229.47,228.74,232.19,223.29,226.64Z"/><path class="cls-6" d="M214.31,164.77c.49-2.39,3.7-13.11,5.31-15.89s6.69-10.48,9-9.51.93,3.35.93,3.35,2.68-2.91,4.87-1.72,0,4.81,0,4.81,3-2.75,5.09-1.45-.7,4.58-.7,4.58,2.61-2.67,3.88-.84c1.52,2.2-3.83,6.6-5.34,9.8-.34.73-5.86,15.24-5.86,15.24Z"/><path class="cls-5" d="M239.09,148.66c-3.93,3.24-5.08,5.33-6.64,10.06,0,.09-.17.07-.14,0,1.09-4.78,2.15-7.61,6.63-10.24C239.15,148.3,239.27,148.5,239.09,148.66Z"/><path class="cls-5" d="M234.77,145.55c-3.78,3.72-5.05,6-7,10.83,0,.06-.15,0-.13,0,1.55-4.91,2.68-7.71,7-11C234.75,145.21,235,145.34,234.77,145.55Z"/><path class="cls-5" d="M229.45,142.92c-3.4,3.87-4.9,6.28-6.22,11.24,0,.11-.21.08-.19,0a16.93,16.93,0,0,1,6.27-11.35C229.56,142.63,229.66,142.68,229.45,142.92Z"/><path class="cls-6" d="M232.36,176.72s4.85-4.4,6.3-6.86,3.42-13.64,1-14.19c-3.11-.73-5.54,5.49-6.32,8.7,0,0-7.2-1.68-9.92,2.41S232.36,176.72,232.36,176.72Z"/><path class="cls-5" d="M238.75,155.74c-3.32,1.37-4.08,5.64-5.07,8.69a.28.28,0,0,1-.36.2.18.18,0,0,1-.1,0c-3.06-.51-7.53-.33-9.82,2a.1.1,0,0,1-.12,0,.09.09,0,0,1,0-.07c2.11-2.82,6.47-3.35,9.81-2.58.93-3.15,1.92-7.39,5.65-8.24C238.76,155.7,238.77,155.73,238.75,155.74Z"/><path class="cls-7" d="M211.43,167.92l21.37,11s-5.54,15.29-6,18.14,4.74,23,5.46,27.27-10.17,19.22-11,11.71-12.36-30-12.94-37.7S211.43,167.92,211.43,167.92Z"/><path class="cls-8" d="M224.69,205.77a6.24,6.24,0,0,1-.23-1.77,5.66,5.66,0,0,1,.23-1.78,6.31,6.31,0,0,1,.23,1.78A7,7,0,0,1,224.69,205.77Z"/><path class="cls-8" d="M218.72,181.24a6.82,6.82,0,0,1,0-3.53A6.82,6.82,0,0,1,218.72,181.24Z"/><path class="cls-8" d="M226.74,214a7,7,0,0,1,3.57,0A7.19,7.19,0,0,1,226.74,214Z"/><path class="cls-8" d="M221.44,191.11a6.33,6.33,0,0,1,1.79-.23,6,6,0,0,1,1.78.23,7.35,7.35,0,0,1-3.57,0Z"/><path class="cls-8" d="M225.22,224.09a7,7,0,0,1-2.54-2.49,6.14,6.14,0,0,1,1.44,1.09A6.47,6.47,0,0,1,225.22,224.09Z"/><path class="cls-8" d="M217.51,201.18a6.89,6.89,0,0,1-2.53-2.5,6.09,6.09,0,0,1,1.43,1.09A6.53,6.53,0,0,1,217.51,201.18Z"/><path class="cls-8" d="M232.67,228.26a6.59,6.59,0,0,1-1.1,1.42,7.21,7.21,0,0,1-1.43,1.09,6.92,6.92,0,0,1,2.53-2.51Z"/><path class="cls-8" d="M218.77,211.77a6.53,6.53,0,0,1-1.1,1.41,6.68,6.68,0,0,1-1.43,1.09A6.89,6.89,0,0,1,218.77,211.77Z"/><path class="cls-8" d="M231.22,180.84a7.1,7.1,0,0,1-2.52,2.5A6.94,6.94,0,0,1,231.22,180.84Z"/><path class="cls-5" d="M230.38,182a191.71,191.71,0,0,0-18.3-8.59c-.07,0-.12.08,0,.11,1.52.62,11.29,5.68,18.3,8.6C230.42,182.16,230.46,182,230.38,182Z"/></g><g id="freepik--character-3--inject-701"><path class="cls-13" d="M273,472.65c1.8.59,53.33.45,55.29-.79.75-.46,1.17-7.9,1.41-16.89q.07-2.91.13-6c0-2.41.07-4.86.08-7.23.07-10.65-.08-20-.08-20H296.27V449l.17,6s-19.7,8.8-21.7,10.38S271.2,472.07,273,472.65Z"/><path class="cls-8" d="M273,472.65c1.8.59,53.33.45,55.29-.79.75-.46,1.17-7.9,1.41-16.89q.07-2.91.13-6c0-2.41.07-4.86.08-7.23H296.29V449l.16,6s-19.69,8.8-21.7,10.38S271.2,472.07,273,472.65Z"/><path class="cls-14" d="M272.83,472.73c1.18.38,23.11.46,39.1.13,3.7-.08,7.08-.18,9.82-.3,3.75-.17,6.28-.37,6.69-.63.93-.57,1.34-11.49,1.54-23H296.27l.18,6s-19.82,8.84-21.83,10.43S271,472.13,272.83,472.73Z"/><path class="cls-5" d="M273.57,470.67c8.69-.23,43.74-.37,52.35,0,.06,0,.06.06,0,.06-8.61.42-43.66.28-52.35,0C273.39,470.81,273.39,470.68,273.57,470.67Z"/><path class="cls-5" d="M295.22,453c3.41-.64,7.59-.13,10.21,2.27.1.1,0,.24-.14.2a48,48,0,0,0-10.06-2,.22.22,0,0,1,0-.43Z"/><path class="cls-5" d="M292.75,454.52c3.42-.64,7.6-.14,10.22,2.27.1.09,0,.24-.15.2a47.93,47.93,0,0,0-10.05-2,.22.22,0,0,1,0-.43Z"/><path class="cls-5" d="M290.31,456c3.41-.64,7.6-.14,10.16,2.27.11.09,0,.23-.13.2a49.07,49.07,0,0,0-10-2.05.21.21,0,0,1-.21-.21A.21.21,0,0,1,290.31,456Z"/><path class="cls-5" d="M287.82,457.48c3.42-.65,7.6-.13,10.22,2.26.11.11,0,.24-.14.21a47.89,47.89,0,0,0-10.06-2,.23.23,0,0,1-.18-.26A.21.21,0,0,1,287.82,457.48Z"/><path class="cls-5" d="M290.42,450c2.43,1.83,5.54,2.61,8.4,3.66a.41.41,0,0,0,.52-.29.51.51,0,0,0,0-.13.08.08,0,0,0,.08-.09v0a18.09,18.09,0,0,0-5.29-7.75c-1.43-1.18-3.93-2-5.27-.16S289,449,290.42,450Zm-.88-2.74c-.61-3.72,3.42-1.78,4.45-.86a21.08,21.08,0,0,1,1.85,1.93,51.55,51.55,0,0,1,3.18,4.46c-1.35-.6-2.77-1.07-4.13-1.6-1.67-.62-5-1.87-5.35-3.9Z"/><path class="cls-5" d="M310.83,447.94c-.83-2.1-3.46-1.93-5.14-1.14a18.12,18.12,0,0,0-7.06,6.22.09.09,0,0,0,0,.13s0,0,0,0a.42.42,0,0,0,.41.54c3-.3,6.24-.24,9.05-1.44C309.76,451.53,311.62,449.93,310.83,447.94Zm-7.31,4.36c-1.47.18-2.93.29-4.4.53a52.43,52.43,0,0,1,4.21-3.53,20.26,20.26,0,0,1,2.25-1.42c1.22-.64,5.61-1.51,4.08,1.93-.87,1.89-4.39,2.29-6.14,2.49Z"/><path class="cls-10" d="M341,280.17s-9.07,88.76-9.29,89.92c0,.14-.09,1.83-.17,4.63-.49,15.29-1.7,62.94-1.7,62.94h-37s2.41-56.44,3.8-69.61c1.76-16.8,12.93-87.84,12.93-87.84Z"/><path class="cls-5" d="M327.28,373.21q1.71-28.86,5.14-57.57c1.3-10.79,2.87-21.54,4.42-32.29,0-.1.16-.1.15,0-2.87,19.14-4.89,38.43-6.64,57.65s-3,38.53-3.76,57.83c-.45,11-.79,21.88-1.14,32.82a.21.21,0,0,1-.26.16.2.2,0,0,1-.16-.16C325.59,412.19,326.16,392.69,327.28,373.21Z"/><path class="cls-5" d="M295.2,431.76c.92-.12,2-.08,3-.12s2.22,0,3.33-.09c2.14-.07,4.3-.13,6.47-.16q6.47-.12,12.94.09l3.56.12c1.27,0,2.54.16,3.8.15a.08.08,0,0,1,.09,0,.07.07,0,0,1,0,.08h-.05c-2.18,0-4.38.18-6.55.27s-4.29.11-6.42.13c-4.32.07-8.65,0-12.94-.13l-3.57-.09-1.89-.09c-.57,0-1.13,0-1.7,0C295.09,431.9,295.1,431.78,295.2,431.76Z"/><path class="cls-5" d="M341,280.17s-9.07,88.76-9.29,89.92c0,.14-.09,1.83-.17,4.63l-17.44-94.55Z"/><path class="cls-13" d="M410.59,443.87c1.59-1.05,33.32-41.24,33.55-43.53.09-.92-5.54-5.79-12.54-11.53-1.51-1.26-3-2.6-4.68-3.81-2.07-1.53-4.16-3-6.21-4.45-8.83-6.2-16.5-11.07-16.5-11.07l-20.15,25.38,15.71,11.51,6.47,4.72,4.86,3.57s-5.19,20.77-5.17,23.31S409,444.88,410.59,443.87Z"/><path class="cls-8" d="M410.59,443.87c1.59-1.05,33.32-41.24,33.55-43.53.09-.92-5.54-5.79-12.54-11.53-1.51-1.26-3-2.6-4.68-3.81-2.07-1.53-4.16-3-6.21-4.45-6.24,7.79-15.29,18.91-20.95,25.82l6.47,4.72,4.86,3.57s-5.19,20.77-5.17,23.31S409,444.88,410.59,443.87Z"/><path class="cls-14" d="M410.56,444c1.59-1,33.5-41.47,33.73-43.77.11-1.06-8.32-8.14-17.31-15.42l-20.84,26.23,4.89,3.59s-5.2,20.89-5.2,23.44S409,445.06,410.56,444Z"/><path class="cls-5" d="M409.37,442.17c5.19-6.91,26.74-34.28,32.4-40.72,0-.05.08,0,0,0-5,7-26.76,34.15-32.35,40.77C409.37,442.39,409.27,442.31,409.37,442.17Z"/><path class="cls-5" d="M408.75,414.42c1.6-3.06,4.63-6,8.12-6.55a.13.13,0,0,1,.07.24,46.87,46.87,0,0,0-7.83,6.57.23.23,0,0,1-.36-.26Z"/><path class="cls-5" d="M408.4,417.26c1.61-3.06,4.62-6,8.13-6.55a.12.12,0,0,1,.06.23,48.8,48.8,0,0,0-7.84,6.56.22.22,0,0,1-.35-.24Z"/><path class="cls-5" d="M408.06,420.08c1.6-3.06,4.62-6,8.12-6.56a.13.13,0,0,1,.07.24,48,48,0,0,0-7.85,6.57.21.21,0,0,1-.34-.25Z"/><path class="cls-5" d="M407.68,422.91c1.6-3,4.62-6,8.12-6.54.14,0,.16.16.07.24a47.78,47.78,0,0,0-7.84,6.56.22.22,0,0,1-.31,0A.23.23,0,0,1,407.68,422.91Z"/><path class="cls-5" d="M403.41,416.3c3-.74,5.55-2.75,8.08-4.29a.41.41,0,0,0,.1-.58.47.47,0,0,0-.1-.1.09.09,0,0,0,0-.13h0a18.53,18.53,0,0,0-9.4-.67c-1.85.39-4,1.83-3.4,4S401.68,416.74,403.41,416.3Zm-2.7-1c-3.32-1.83.71-3.75,2.06-4a20,20,0,0,1,2.67-.22c1.83,0,3.67.08,5.5.26-1.31.7-2.55,1.5-3.82,2.24C405.59,414.48,402.54,416.31,400.71,415.3Z"/><path class="cls-5" d="M414.36,399.11c-2.19-.65-3.69,1.5-4.09,3.3a17.82,17.82,0,0,0,.55,9.33c0,.07.08.07.13.05a.42.42,0,0,0,.58.1.52.52,0,0,0,.11-.1c1.62-2.52,3.69-5,4.44-7.94C416.55,402.16,416.43,399.73,414.36,399.11Zm-1.06,8.38c-.77,1.27-1.59,2.47-2.3,3.76a53,53,0,0,1-.2-5.49,20.91,20.91,0,0,1,.26-2.63c.25-1.34,2.27-5.3,4.05-2,1,1.87-.9,4.86-1.81,6.35Z"/><path class="cls-10" d="M309.11,279.68S312,293,321,299.51c0,0,23.25,60.45,28.14,66.81,8.1,10.54,47.26,37.67,47.26,37.67l23.11-29.16s-37.89-24.15-40.92-27.95c-2-2.52-18.16-41.33-18-42.71,2.22-16.4-5.68-26.6-5.68-26.6Z"/><path class="cls-5" d="M352.23,280.12a38.92,38.92,0,0,1,3.89,10.07,31.2,31.2,0,0,1,.73,5.44c.11,1.94,0,3.9,0,5.86a21,21,0,0,0,.93,5.89c.55,1.83,1.22,3.66,1.84,5.49q2,5.63,4.21,11.16,4.41,11,9.58,21.72a16.78,16.78,0,0,0,2.95,4.58,27.91,27.91,0,0,0,4.62,3.4l10.21,6.88,20.53,13.83v.05c.23.15,0,.53-.21.37-6.88-4.62-11.22-7.57-18.1-12.19l-10.41-7c-1.65-1.1-3.32-2.17-4.93-3.32a13.13,13.13,0,0,1-3.58-3.66,45.82,45.82,0,0,1-2.51-4.88q-1.31-2.74-2.55-5.49-2.48-5.18-4.71-10.67t-4.34-11.11c-.69-1.87-1.36-3.76-2-5.65a42.34,42.34,0,0,1-1.67-5.49c-.76-3.84-.08-7.79-.45-11.67a35.27,35.27,0,0,0-2.77-10.9,29.47,29.47,0,0,0-1.35-2.62C352.05,280.12,352.23,280.07,352.23,280.12Z"/><path class="cls-5" d="M339.5,281.17a12.31,12.31,0,0,0,4.53,6.4,15.36,15.36,0,0,0,8.22,2.79.4.4,0,0,1,0,.79c-6,0-12.13-3.79-13-10C339.24,281.06,339.47,281,339.5,281.17Z"/><path class="cls-5" d="M315.26,295.45a33.66,33.66,0,0,1,6.23,3.28c2.07,1.27,4,2.74,6,4.12.08.06,0,.18-.06.13-2.1-1.2-4.28-2.23-6.36-3.47a39.13,39.13,0,0,1-5.88-3.89A.1.1,0,0,1,315.26,295.45Z"/><path class="cls-5" d="M314.39,283c.33,1.36.72,2.74,1.09,4.07s.61,2.58,1,3.83a6.66,6.66,0,0,0,2,3.17c.53.45,1.11.83,1.67,1.24l.93.64c-.05-.17-.09-.36-.13-.54-.12-.53-.23-1-.35-1.56-.25-1.15-.49-2.31-.73-3.47-.45-2.27-.92-4.57-1.47-6.82a.08.08,0,0,1,.05-.09.08.08,0,0,1,.09,0,0,0,0,0,1,0,.05c.68,2.22,1.42,4.41,2,6.66.29,1.09,1.42,6.54,1.49,6.92a12.1,12.1,0,0,1,.13,1.21,4.24,4.24,0,0,1,.06,1.23.11.11,0,0,1-.14.05.12.12,0,0,1-.05-.05h0a4.9,4.9,0,0,1-.4-1.17c-.12-.39-.22-.78-.32-1.18l-.08-.43c-.56-.31-1.09-.72-1.62-1.07s-1.14-.72-1.68-1.13a6.18,6.18,0,0,1-2.13-3,21.9,21.9,0,0,1-.84-3.92c-.24-1.55-.45-3.11-.73-4.65C314.24,283,314.34,282.92,314.39,283Z"/><path class="cls-5" d="M392.74,398.71c.5-.83,1.19-1.63,1.77-2.41s1.34-1.75,2-2.64c1.26-1.72,2.55-3.42,3.85-5.1,2.63-3.39,5.34-6.74,8.12-10l2.31-2.69c.82-.92,1.7-1.83,2.48-2.86.06-.07.14,0,.09.08-1.36,1.68-2.57,3.51-3.86,5.25s-2.57,3.4-3.87,5.08c-2.63,3.38-5.35,6.72-8.15,10-.78.92-1.53,1.83-2.29,2.75-.41.47-.83.91-1.24,1.42a11.2,11.2,0,0,1-1.1,1.28.09.09,0,0,1-.12,0,.08.08,0,0,1,0-.12Z"/><path class="cls-5" d="M289.25,236.28a.42.42,0,0,0,.38.42l1.7-.12c1-4.39,2.21-7.94,1.95-6.58a22.93,22.93,0,0,0-.27,6.46l3.35-.3c.4-7.54,1.41-13.23,1.51-11.53.41,6.85,1.07,9,1.8,11.25,8.09-.72,18.68-1.83,26.32-2.74.38-4.2.61-8.71.78-8.42a22.51,22.51,0,0,1,2.36,8c2.43-.32,4.37-.62,5.55-.91,0,0,.15-3.51.09-4.64a25.22,25.22,0,0,0-1.95-8.42,43,43,0,0,0-4.52-7.46v-.05h0a24.83,24.83,0,0,1-2.69-5h0a26,26,0,0,1-1.13-4c-1-5-4.18-8.95-8.79-9.66-9.44-7.23-17.42-2.53-19.15,4.27a21.44,21.44,0,0,0-.46,2.24h0c-.5,3-.8,6.9-1.15,9.91h0a29.36,29.36,0,0,1-.58,3.5C292.83,218.06,288.35,221.72,289.25,236.28Z"/><path class="cls-5" d="M317.76,193.64a9.39,9.39,0,0,1,6.11,6.93,25.43,25.43,0,0,0,1.94,6.07,22.05,22.05,0,0,0,4,5,16.55,16.55,0,0,1,4.94,8.48,29.54,29.54,0,0,1,.41,11.51h0a31.42,31.42,0,0,0-1.09-11.89c-1.13-3.89-3.56-6.11-6.1-8.83a17,17,0,0,1-4.2-7.67,20.84,20.84,0,0,0-1.55-5.29,10.32,10.32,0,0,0-4.62-3.92C317.36,193.92,317.53,193.55,317.76,193.64Z"/><path class="cls-5" d="M290.11,218.83c1.7-3.14,3.54-5.86,4.31-9.56.7-3.38.93-6.87,1.63-10.24,0-.05.09-.05.08,0-1,6-.64,11.77-3.52,17.06a37.93,37.93,0,0,0-4,8.85,29.56,29.56,0,0,0-.68,10.6c0,.13-.14.15-.16,0A24.44,24.44,0,0,1,290.11,218.83Z"/><path class="cls-13" d="M313.47,235.34C304,237,271.82,227,265.81,220.42c-9-9.71-15.76-27-17.69-33.58-.84-2.84,18.09-11.41,19.41-8.54,2.88,6.16,11.09,25.26,12.69,27S297.78,218.1,307,223C319.49,229.48,318.28,234.5,313.47,235.34Z"/><path class="cls-13" d="M268.93,182.28c-.15-1.4-4.55-12-7-15.33a40.17,40.17,0,0,0-9.13-9.5c-5.62-4.15-9.9-6.52-11-5.68-2.05,1.53-.83,4,4.79,8.31s4.87,8.41,4.12,11.31a43.11,43.11,0,0,0-.12,21.64S269.52,187.73,268.93,182.28Z"/><path class="cls-13" d="M251,170.34c-.68,3-4.46-8.23-7.87-9.15s-3.14,2.61-1.85,5.7c4.54,10.71,2.54,17.5,7.87,23.65S251,170.34,251,170.34Z"/><path class="cls-15" d="M249.55,194.89c.41-.33,21.56-12.47,21.56-12.47s7.86,19.83,9.47,22.2,24.73,17,32.72,21.61c8.55,5,6,12.24-9.05,9.29s-32.25-8.68-38-13.6C260.73,217.15,249.55,194.89,249.55,194.89Z"/><path class="cls-5" d="M252.72,197.21a203.59,203.59,0,0,0,18.78-10.43c.07-.05,0-.16-.07-.11-1.48.91-11.92,6.21-18.79,10.42a.07.07,0,0,0,0,.1A.06.06,0,0,0,252.72,197.21Z"/><path class="cls-15" d="M303.87,263.72l1.57,25.84s41.41-7.87,51.51-10.69c0,0-18.18-45.19-31.68-54.78-6.75-4.79-13.13-3-16.39,2-.83,1.26-9.87,20.13-9.87,26.61C299,258.4,303.87,263.72,303.87,263.72Z"/><path class="cls-13" d="M318.37,224.57c-.21.81-4.23,6.09-8,5.88-1.23-.08-1.12-6.76-1.12-6.76l-.1-.5-1.48-6.93,8.27-5.1,1.19-.64s.28,1.93.6,4.32a.83.83,0,0,0,.05.34l.05.4c.06.35.1.72.15,1.08s.07.55.09.85.07.57.1.87A45.64,45.64,0,0,1,318.37,224.57Z"/><path class="cls-5" d="M317.71,214.8a14.29,14.29,0,0,1-8.58,8.39l-1.48-6.93,8.27-5.1,1.19-.64S317.39,212.4,317.71,214.8Z"/><path class="cls-13" d="M297.42,207c.48,12.43,8.05,13.55,10.75,13.45,2.45-.1,10.81-.72,11.64-13.13s-5.15-16.11-10.79-16.19S297,194.57,297.42,207Z"/><path class="cls-5" d="M299.15,203.49q.44-.09.84-.21a1.45,1.45,0,0,0,.82-.38.42.42,0,0,0,0-.54,1.13,1.13,0,0,0-1.1-.22,1.64,1.64,0,0,0-1,.61.48.48,0,0,0,.14.66A.47.47,0,0,0,299.15,203.49Z"/><path class="cls-5" d="M307.4,203.2a8.11,8.11,0,0,1-.86-.14,1.4,1.4,0,0,1-.84-.31.45.45,0,0,1,0-.54,1.11,1.11,0,0,1,1.08-.3,1.59,1.59,0,0,1,1,.53.46.46,0,0,1-.42.76Z"/><path class="cls-5" d="M305.83,206.42a.08.08,0,0,1,.08.08c0,.85.11,1.83.92,2.09v0C305.84,208.52,305.69,207.23,305.83,206.42Z"/><path class="cls-5" d="M306.59,205.54c1.37-.13,1.52,2.6.24,2.74S305.44,205.64,306.59,205.54Z"/><path class="cls-5" d="M307.14,205.65c.25.14.5.4.79.42s.58-.29.78-.57h.05c0,.52-.14,1.07-.7,1.17s-.92-.35-1.07-.86C306.94,205.74,307,205.59,307.14,205.65Z"/><path class="cls-5" d="M300.92,206.52a.06.06,0,0,0-.06.08c.08.84,0,1.83-.73,2.15v0C301.08,208.61,301.13,207.3,300.92,206.52Z"/><path class="cls-5" d="M300.1,205.68c-1.37,0-1.32,2.75,0,2.75S301.26,205.7,300.1,205.68Z"/><path class="cls-5" d="M299.55,205.88c-.21.14-.42.42-.68.43s-.53-.26-.73-.54h0c0,.52.17,1.06.68,1.15s.8-.38.92-.92C299.7,206,299.62,205.81,299.55,205.88Z"/><path class="cls-5" d="M306.27,213.15c-.19.22-.36.51-.67.57a2.41,2.41,0,0,1-.92-.12h0a1.17,1.17,0,0,0,1.13.35.92.92,0,0,0,.59-.81S306.3,213.12,306.27,213.15Z"/><path class="cls-5" d="M302.57,210.24c-.06.61-.1,1.22-.1,1.83,0,.06.15.07.35.08h0a2.86,2.86,0,0,0,2.77-1.17.05.05,0,0,0,0-.08.06.06,0,0,0-.06,0,4.34,4.34,0,0,1-2.59.85c0-.16.29-2.17.2-2.18a5.62,5.62,0,0,0-1.35.37c.17-2.66.78-5.26.92-7.91a.08.08,0,1,0-.16,0,42.63,42.63,0,0,0-1.37,8.47C301.11,210.84,302.32,210.35,302.57,210.24Z"/><path class="cls-5" d="M302.82,211.79a3.41,3.41,0,0,0,1.32,1.15,1.56,1.56,0,0,0,.93.13c.7-.14.76-.76.67-1.3a3.55,3.55,0,0,0-.26-.84A4.66,4.66,0,0,1,302.82,211.79Z"/><path class="cls-16" d="M304.17,212.94a1.56,1.56,0,0,0,.93.13c.7-.14.75-.76.67-1.3A1.61,1.61,0,0,0,304.17,212.94Z"/><path class="cls-5" d="M319.3,206.93c-3,.16-3.23-4.58-3.23-4.58s-3.47-.14-4-5.64A8.42,8.42,0,0,1,306,201c-1,.19,2.2-2.5,2.2-2.5s-3.79,3.74-11.23,2.75c-.53-.08-.38-8.54,5.28-11.43s11.55-.92,15.29,2.52c0,0,4.32,1.75,5,5.69S320.47,206.86,319.3,206.93Z"/><path class="cls-13" d="M317.85,208.34s2.24-4.19,4.12-3.45.55,6.58-1.43,7.59a2.12,2.12,0,0,1-2.91-.68l-.06-.09Z"/><path class="cls-5" d="M321.55,206.55s0,0,0,.06a5.22,5.22,0,0,0-2.34,3.66,1.18,1.18,0,0,1,1.54-.62l.16.09v.08a1.32,1.32,0,0,0-1.37.62,6.75,6.75,0,0,0-.54,1.23c-.05.13-.29.09-.26-.06h0C318.46,209.73,319.58,207,321.55,206.55Z"/><path class="cls-13" d="M328.56,228.93c15.94,16.62,29,51.24,21.37,54.45-7,3-29.22.22-38.35-1.93-2.68-.64,2.78-21.21,5.59-20.53,3.47.81,12.33,2.07,12.69,2.05.77-.06-7.39-23.07-10-31.9C316.19,218.76,322.58,222.69,328.56,228.93Z"/><path class="cls-13" d="M289.54,256.19a3.22,3.22,0,0,0,.28,3.66,4.82,4.82,0,0,0-2.33,2.32c-.77,1.83,1.85,3.83,1.85,3.83a5.93,5.93,0,0,0-2.07,2.84c-.55,1.83,1.77,4.2,1.77,4.2a5.19,5.19,0,0,0-.23,3.66c1.11,3.16,6.16,4.29,9.35,5.05s12.94-.07,14.86,0l5-20.24s-13.35-7.42-17.24-7.77C297.53,253.4,290.94,254.05,289.54,256.19Z"/><path class="cls-5" d="M290,259.6c3.56-.5,7.07,0,10.61.42a.07.07,0,0,1,0,.08l0,0c-3.52-.4-7.07-.11-10.59-.38a.07.07,0,0,1-.09-.07A.07.07,0,0,1,290,259.6Z"/><path class="cls-5" d="M289.44,265.79a9.52,9.52,0,0,1,2.44.21c.86.13,1.72.28,2.57.43,1.71.33,3.41.68,5.09,1.09.08,0,.08.13,0,.12-1.7-.32-3.41-.6-5.13-.85l-2.57-.35a11,11,0,0,1-2.42-.41.13.13,0,0,1-.06-.17A.18.18,0,0,1,289.44,265.79Z"/><path class="cls-5" d="M289.08,273.11a6.27,6.27,0,0,1,2.19.3l2.33.46c1.55.31,3.1.62,4.67.86.08,0,.06.14,0,.13-1.59-.25-3.19-.47-4.77-.74l-2.34-.39a6.34,6.34,0,0,1-2.09-.55S289.05,273.11,289.08,273.11Z"/><path class="cls-15" d="M329,262.31c1.1-.92-7.6-22.6-10-32.46s2.23-9.32,9.52-1.37c7.82,8.51,20.81,27.33,23.77,46.72.92,6.06,2.17,10.38-12,10.13a161.66,161.66,0,0,1-24.56-2.12l3.09-22.15S328.73,262.57,329,262.31Z"/><path class="cls-5" d="M320.81,283a177.12,177.12,0,0,0,2.58-19.89c0-.07-.12-.08-.12,0-.13,1.62-1.95,12.39-2.6,19.89C320.67,283.11,320.81,283.12,320.81,283Z"/><path class="cls-5" d="M339.8,264a17.55,17.55,0,0,0-2.67-.54l-2.49-.45-1.08-.19h.1l1.44-.2c.49-.08.93-.18,1.46-.22.07,0,.07-.13,0-.12-.49.06-.93.06-1.45.09l-1.5.1-1.32.14c-.8-.13-1.6-.26-2.41-.37-.35-1.57-.92-3.13-1.39-4.67s-1-3.2-1.59-4.79-1.12-3.11-1.73-4.65c-.31-.77-1.93-5.49-2.47-6.73,0-.09-.13,0-.11,0,.31,1.25,2,6.11,2.22,6.89.17.58.36,1.16.54,1.72l-.07-.08-1-1.28c-.65-.87-1.29-1.75-1.85-2.67,0-.09-.16,0-.12.07.54,1,1.05,1.94,1.61,2.88.29.48.58.92.92,1.39a7,7,0,0,0,1,1.28h0c.15.47.29.92.45,1.41.49,1.58,1,3.15,1.49,4.73s.85,2.92,1.37,4.34c-1.65-.22-3.3-.41-4.95-.61l-2.54-.29c-.92-.1-1.84-.1-2.77-.26-.08,0-.11.11,0,.12.93.1,1.79.37,2.68.53l2.5.43c1.75.29,3.52.6,5.28.92s3.5.45,5.24.65l2.64.3a18.29,18.29,0,0,0,2.56.21Z"/><path class="cls-5" d="M343.7,285.35c-7.63-.27-21.35-1.3-27.73-2.14a.06.06,0,0,0-.08,0,.07.07,0,0,0,0,.09h0a110.84,110.84,0,0,0,27.73,2.31.15.15,0,0,0,.15-.14A.15.15,0,0,0,343.7,285.35Z"/><path class="cls-5" d="M348,259c-.41-.91-.85-1.83-1.28-2.74s-.55-.92-.09.27.84,2.23,1.27,3.33c.85,2.21,5.26,15.56,4.77,20.28,0,.07.1.07.11,0C353.94,273.86,349.57,262.47,348,259Z"/></g><g id="freepik--character-1--inject-701"><path class="cls-5" d="M160.55,198.49c10.48,10.07,12.62,36-.3,53.4-10.95,14.75-36.35,17.56-47.28,8.76-11.58-9.34-9.88-24.48-1.41-31.84,8.73-7.6,19.21-5.56,24.51-12.33,2.53-3.24,3.47-10.06,7-15C147.06,195.88,155.19,193.32,160.55,198.49Z"/><path class="cls-5" d="M150.92,196.58c1.16-.43,2.26-6.86-2-9.91s-9.72.44-7.39,5.7C142.94,195.69,148.47,197.48,150.92,196.58Z"/><path class="cls-5" d="M140.59,206.05a44.39,44.39,0,0,1-2.88,6.82,17.53,17.53,0,0,1-4.76,5.76,11.33,11.33,0,0,1-3.45,1.61c-1.2.39-2.41.71-3.6,1a72.84,72.84,0,0,0-7.05,2.21,28.71,28.71,0,0,0-6.47,3.33,17.54,17.54,0,0,0-7.39,12,30.91,30.91,0,0,0-.22,7.32,29,29,0,0,1-.23-7.39,18.3,18.3,0,0,1,2.28-7.08,17.52,17.52,0,0,1,5.05-5.55,30.28,30.28,0,0,1,6.66-3.51,71.14,71.14,0,0,1,7.16-2.17c1.2-.32,2.39-.63,3.57-1a12.35,12.35,0,0,0,3.29-1.43,17,17,0,0,0,4.77-5.41A51.13,51.13,0,0,0,140.59,206.05Z"/><path class="cls-5" d="M162.56,200.74a51.54,51.54,0,0,1,7,14.23,42.32,42.32,0,0,1,1.84,15.77,32.69,32.69,0,0,1-1.63,7.82c-.2.64-.46,1.26-.7,1.88a17.54,17.54,0,0,1-.81,1.83c-.31.58-.58,1.21-.92,1.83l-1.05,1.71a41.27,41.27,0,0,1-11.09,11.34c1-.92,2-1.7,3-2.61s1.93-1.83,2.77-2.82a37.92,37.92,0,0,0,4.72-6.28,33.55,33.55,0,0,0,4.83-14.78,42.69,42.69,0,0,0-1.64-15.49,57.86,57.86,0,0,0-2.65-7.41A56.09,56.09,0,0,0,162.56,200.74Z"/><path class="cls-5" d="M143,186.29a7.32,7.32,0,0,0-2.46,4.07,4.31,4.31,0,0,0,1.3,4.13,8.79,8.79,0,0,0,4.24,2.06,13.22,13.22,0,0,0,2.43.29,6.53,6.53,0,0,0,2.45-.26,5.94,5.94,0,0,1-2.43.71,11.13,11.13,0,0,1-2.58,0,8.65,8.65,0,0,1-4.75-2.08,4.79,4.79,0,0,1-1.35-5A6.32,6.32,0,0,1,143,186.29Z"/><path class="cls-17" d="M149,230.41c-3.28,21.35-22.3,64.81-25.17,70.4-2,3.78-22.39-6-20.67-8.35,2.19-3,24.16-41.23,34.64-55C143.62,229.79,149.71,226,149,230.41Z"/><path class="cls-17" d="M103.62,291.86c-2.38,3.11-6.12,12-7,15s-2.69,11.68-.41,12.6,3-1.63,3-1.63-.18,3.8,2.14,4.48,3.35-3.25,3.35-3.25.09,3.91,2.46,4.42,2.77-3.66,2.77-3.66-.08,3.59,2,3.21c2.57-.47,2-7.1,3.15-10.3.27-.73,6.55-14.36,6.55-14.36Z"/><path class="cls-5" d="M109.4,319.9c-.43-4.87.24-7.07,2.46-11.35,0-.09-.07-.17-.13-.09-2.56,4-3.79,6.65-2.57,11.48C109.23,320.18,109.42,320.14,109.4,319.9Z"/><path class="cls-5" d="M104.29,319.12c0-5.1.7-7.5,2.69-12.16,0-.06-.07-.12-.11,0-2.34,4.4-3.52,7.07-2.83,12.17C104.06,319.31,104.29,319.35,104.29,319.12Z"/><path class="cls-5" d="M98.88,317.28c.35-4.94,1-7.61,3.53-11.9a.09.09,0,0,0-.06-.12.1.1,0,0,0-.09,0,16.31,16.31,0,0,0-3.54,12C98.75,317.59,98.85,317.59,98.88,317.28Z"/><path class="cls-17" d="M125.17,296.63a58.81,58.81,0,0,1-1,8.79c-.73,2.66-7.09,11.6-9.13,10.35-2.61-1.62,0-7.51,1.72-10.22,0,0-6.06-3.74-5.07-8.37S125.17,296.63,125.17,296.63Z"/><path class="cls-5" d="M114.46,315.09c-1.31-3.19,1.13-6.61,2.56-9.36a.28.28,0,0,0-.11-.39l-.09,0c-2.43-1.74-5.36-4.89-5.31-8a.07.07,0,0,0-.07-.07.08.08,0,0,0-.08.07c-.51,3.35,2.11,6.68,4.9,8.42-1.51,2.8-3.81,6.33-1.85,9.41C114.44,315.12,114.47,315.11,114.46,315.09Z"/><path class="cls-14" d="M124.13,254.28s3.1,1.59,6.71,3.47c4.71,2.44,10.28,5.39,10.88,5.89,0,0,6-19.26,7.39-27.87s.1-10.29-6.24-5.11c-3.06,2.52-7.53,8.11-11.33,13.23C127.45,249.36,124.13,254.28,124.13,254.28Z"/><path class="cls-14" d="M124.13,254.28s3.1,1.59,6.71,3.47c4.71,2.44,10.28,5.39,10.88,5.89,0,0,6-19.26,7.39-27.87s.1-10.29-6.24-5.11c-3.06,2.52-7.53,8.11-11.33,13.23C127.45,249.36,124.13,254.28,124.13,254.28Z"/><path class="cls-14" d="M149.09,235.77c-1.34,8.61-7.39,27.87-7.39,27.87-.59-.5-6.17-3.45-10.88-5.89l-2.61-1.35c-2.37-1.24-4.1-2.12-4.1-2.12s3.32-4.92,7.39-10.39c3.8-5.12,8.27-10.71,11.33-13.23l.67-.53C149.28,225.6,150.38,227.47,149.09,235.77Z"/><path class="cls-18" d="M149.09,235.77c-1.34,8.61-7.39,27.87-7.39,27.87-.59-.5-6.17-3.45-10.88-5.89l-2.61-1.35c-2.37-1.24-4.1-2.12-4.1-2.12s3.32-4.92,7.39-10.39c3.8-5.12,8.27-10.71,11.33-13.23l.67-.53C149.28,225.6,150.38,227.47,149.09,235.77Z"/><path class="cls-5" d="M149.09,235.77c-1.34,8.61-7.39,27.87-7.39,27.87-.59-.5-6.17-3.45-10.88-5.89l-2.61-1.35c3.75-6.53,10.76-18.52,15.29-26.27C149.28,225.6,150.38,227.47,149.09,235.77Z"/><path class="cls-5" d="M142.5,259.34a171.4,171.4,0,0,0-15.92-8c-.07,0-.1.08,0,.1,1.32.59,9.81,5.26,15.91,8C142.52,259.48,142.57,259.38,142.5,259.34Z"/><path class="cls-17" d="M149.58,226.08c.14.82,3.74,6.36,7.52,6.41,1.23,0,1.61-6.63,1.61-6.63l.15-.48,2-6.79L153,212.92l-1.14-.76-.92,4.25a2.29,2.29,0,0,1-.07.34c0,.12-.06.25-.09.38-.07.35-.16.71-.23,1.07s-.11.54-.16.82-.1.57-.15.87A44.21,44.21,0,0,0,149.58,226.08Z"/><path class="cls-5" d="M151,216.39a14.2,14.2,0,0,0,7.9,9l2-6.78L153,212.9l-1.14-.76S151.46,214,151,216.39Z"/><path class="cls-17" d="M169.87,206.75c2.9,12-4,15.23-6.69,15.73-2.4.46-10.55,2.17-14.69-9.5s.59-16.82,6-18.39S167,194.71,169.87,206.75Z"/><path class="cls-5" d="M168.64,204.29h-.87a1.39,1.39,0,0,1-.87-.2.43.43,0,0,1-.08-.53,1.07,1.07,0,0,1,1-.43,1.61,1.61,0,0,1,1.1.39.47.47,0,0,1-.07.67A.43.43,0,0,1,168.64,204.29Z"/><path class="cls-5" d="M160.74,206a7.14,7.14,0,0,0,.81-.31,1.4,1.4,0,0,0,.76-.48.45.45,0,0,0-.1-.53,1.13,1.13,0,0,0-1.11-.07,1.69,1.69,0,0,0-.92.72.47.47,0,0,0,.22.64A.5.5,0,0,0,160.74,206Z"/><path class="cls-5" d="M163.06,208.74s-.05,0,0,.08c.19.83.26,1.83-.45,2.22v0C163.48,210.78,163.37,209.49,163.06,208.74Z"/><path class="cls-5" d="M162.15,208c-1.36.14-.92,2.83.31,2.74S163.3,207.89,162.15,208Z"/><path class="cls-5" d="M161.64,208.24c-.21.18-.41.48-.69.55s-.61-.16-.87-.4H160c.08.52.35,1,.93,1s.81-.52.87-1C161.84,208.29,161.72,208.16,161.64,208.24Z"/><path class="cls-5" d="M167.52,207.6a.07.07,0,0,1,.07.07c.1.83.34,1.83,1.15,2v0C167.79,209.66,167.47,208.41,167.52,207.6Z"/><path class="cls-5" d="M168.15,206.63c1.34-.3,1.85,2.37.59,2.65S167,206.86,168.15,206.63Z"/><path class="cls-5" d="M168.74,206.7c.24.1.5.32.76.29s.47-.36.6-.68h.05a1.09,1.09,0,0,1-.44,1.27c-.44.19-.85-.21-1.07-.7C168.6,206.86,168.65,206.65,168.74,206.7Z"/><path class="cls-5" d="M164,215.17c.22.18.45.43.76.42a2.37,2.37,0,0,0,.93-.3h0a1.17,1.17,0,0,1-1,.57.92.92,0,0,1-.74-.68A.08.08,0,0,1,164,215.17Z"/><path class="cls-5" d="M167.05,211.6a17.35,17.35,0,0,1,.47,1.83c0,.06-.13.1-.33.15h0a2.87,2.87,0,0,1-2.91-.59.06.06,0,0,1,0-.09.1.1,0,0,1,.07,0,4.44,4.44,0,0,0,2.69.33c0-.18-.72-2.06-.63-2.09a5.37,5.37,0,0,1,1.39.09c-.71-2.55-1.84-5-2.49-7.52,0-.09.11-.15.15-.07a44.11,44.11,0,0,1,3,8C168.59,211.91,167.3,211.67,167.05,211.6Z"/><path class="cls-5" d="M167.07,213.11a3.46,3.46,0,0,1-1,1.4,1.52,1.52,0,0,1-.92.31c-.71,0-.93-.58-.93-1.13a3.58,3.58,0,0,1,.08-.92A4.41,4.41,0,0,0,167.07,213.11Z"/><path class="cls-16" d="M166,214.51a1.52,1.52,0,0,1-.92.31c-.71,0-.93-.58-.93-1.13A1.65,1.65,0,0,1,166,214.51Z"/><path class="cls-5" d="M148.69,212.57c1.34-.26,4.35-4.44,3.52-10.92,0,0,.34,5.86,0,6.78s1.68-2.35,1.09-7.59a21.44,21.44,0,0,0,5.81,2c2.58.34,4.1.11,4.25-.1s-3.7-.83-4.82-1.83c0,0,7.05,2.12,10.16,1.93.36,0-.25-7.27-5.4-9.66s-12.15,2-13.86,4.15c0,0-2.31.66-4.38,4.47S147.25,212.87,148.69,212.57Z"/><path class="cls-17" d="M150.75,213.16s-3.27-3.43-4.88-2.22,1.26,6.41,3.43,6.9a2.12,2.12,0,0,0,2.62-1.44.19.19,0,0,1,0-.07Z"/><path class="cls-5" d="M146.77,212.43v0a5.36,5.36,0,0,1,3.23,2.88,1.18,1.18,0,0,0-1.65-.18.69.69,0,0,0-.13.11m.05.07a1.35,1.35,0,0,1,1.49.24,5.63,5.63,0,0,1,.84,1c.09.12.31,0,.24-.13h0c-.25-1.86-2.06-4.16-4.07-4.08Z"/><path class="cls-19" d="M80.69,417.77c.36-.17,51-24.9,59.41-40.46,15-27.81,20.19-63.37,22.08-71.73a122,122,0,0,0,7.84-30H129.19s-10.71,20.29-5.18,34.62c.5,1.32-9.09,46.35-13.77,51.68C105,367.83,65.05,387.69,64.38,388Z"/><path class="cls-5" d="M151,280.75c-2,10.21-4.31,20.38-6.62,30.52s-4.74,20.14-7.3,30.14q-2,7.57-4,15.1c-1.25,4.58-2.47,9.27-5.61,12.95s-7.16,6.23-11,8.86c-4.07,2.75-8.25,5.41-12.5,7.91-8.57,5-17.42,9.63-26.3,14.13L74.39,402c-.24.12,0,.48.22.36,9-4.43,18-9,26.69-13.93q6.54-3.72,12.83-7.81c2.06-1.35,4.09-2.75,6.11-4.16a65.39,65.39,0,0,0,5.46-4.2,21.56,21.56,0,0,0,4.34-5.18,29.85,29.85,0,0,0,2.63-6.35c1.49-4.86,2.72-9.81,4-14.73q4-15.24,7.39-30.6c2.3-10.24,4.44-20.51,6.3-30.85.23-1.25.45-2.5.69-3.76C151.11,280.69,151,280.66,151,280.75Z"/><path class="cls-5" d="M170,275.6a122,122,0,0,1-7.84,30c-.2.84-.42,2-.68,3.32-.06.33-.13.67-.2,1s-.18.91-.28,1.44-.17.91-.27,1.41l-.19,1c-.12.65-.26,1.34-.4,2,0,.29-.11.58-.17.87-.11.53-.23,1.09-.34,1.66-.47,2.29-1,4.79-1.59,7.45-.25,1.12-.52,2.3-.81,3.49s-.57,2.4-.92,3.66c-.13.53-.27,1.06-.41,1.59-.7,2.74-1.49,5.66-2.35,8.6-.18.65-.38,1.3-.57,2-.88,2.9-1.82,5.84-2.85,8.82l-.78,2.23q-.81,2.22-1.68,4.47l-15.12-85C142.44,275.59,170,275.59,170,275.6Z"/><path class="cls-8" d="M50.32,395.23c-1.85.92-3.6,1.91-5.32,2.84l-3.13,1.71c-6.47,3.57-11.35,6.48-11.41,7.23-.21,2.29,23.15,47.76,24.5,49.08s5.22-2.41,5.76-4.9c.3-1.51,0-10-.24-16.43h0c-.19-4.12-.34-7.4-.34-7.4l5.45-2.58,24.87-11.72L74.75,382.69S62.1,389,50.32,395.23Z"/><path class="cls-14" d="M84.77,418.15C84.15,417.3,67.65,385,67.65,385S30.94,403.89,30,406.77s24.49,50.38,25.56,50.87,5.29-2.75,6.53-7.66c.92-3.57-.25-21.27-.25-21.27Z"/><path class="cls-10" d="M64.06,430c-.08-3.42-1.45-7.32-4.36-9.36-.11-.07-.22.09-.17.19a47.55,47.55,0,0,1,4.12,9.25.21.21,0,0,0,.26.14A.21.21,0,0,0,64.06,430Z"/><path class="cls-10" d="M66.58,428.73c-.09-3.42-1.46-7.32-4.37-9.36-.11-.07-.23.08-.17.18a46.17,46.17,0,0,1,4.11,9.26.23.23,0,0,0,.43-.08Z"/><path class="cls-10" d="M69.08,427.46c-.08-3.42-1.46-7.32-4.36-9.36-.11-.07-.22.08-.17.18a46.92,46.92,0,0,1,4.11,9.25.22.22,0,0,0,.29.12A.21.21,0,0,0,69.08,427.46Z"/><path class="cls-10" d="M71.6,426.19c-.1-3.42-1.46-7.32-4.38-9.36-.11-.08-.22.08-.16.18a47.51,47.51,0,0,1,4.11,9.25.23.23,0,0,0,.29.12A.25.25,0,0,0,71.6,426.19Z"/><path class="cls-10" d="M74.1,424.92c-.08-3.43-1.46-7.32-4.36-9.36-.12-.09-.23.08-.17.18A46.92,46.92,0,0,1,73.68,425a.21.21,0,0,0,.29.11A.21.21,0,0,0,74.1,424.92Z"/><path class="cls-19" d="M145.69,311.78s3.49,32.79,5.12,49.3c.42,4.11.69,7.22.79,8.55,0,.53.06,9.09.08,20.3v55.3h33.67v-4.85c0-2.81.1-6.7.16-11.23,0-2.32.07-4.8.1-7.4.26-20.19.48-47.3-.11-55.29-.07-.91-.13-1.87-.2-2.85-1.52-22.61-2.36-55.53-13.56-88.06h-42.6s.37,19.11,9.15,32.94A74,74,0,0,1,145.69,311.78Z"/><path class="cls-5" d="M177.39,376.79c-.17-10.54-.6-21-1.43-31.59s-2.11-20.75-3.81-31.05a255.86,255.86,0,0,0-6.79-30.72c-.37-1.26-.75-2.53-1.14-3.78a.15.15,0,0,0-.17-.1.14.14,0,0,0-.1.17c2.73,10.07,5.08,20.29,6.86,30.6s3,20.81,3.84,31.28,1.39,21,1.66,31.56.28,21,.18,31.56-.51,21-.54,31.53v4c0,.09.14.08.14,0,.19-5.27.5-10.54.68-15.82s.33-10.57.46-15.86C177.44,398,177.56,387.37,177.39,376.79Z"/><path class="cls-5" d="M151.39,314.38c-2.1-1.14-4.25-2.16-6.47-3.1s-4.46-1.77-6.65-2.74c-.09,0-.16.08-.08.13,2.17,1.09,4.28,2.27,6.47,3.32a52.49,52.49,0,0,0,6.63,2.62A.13.13,0,0,0,151.39,314.38Z"/><path class="cls-8" d="M151.76,449.07c0,2,.08,4.05.13,6,0,1.21.07,2.39.11,3.52.25,7.32.66,13,1.3,13.36,1.95,1.23,53.48,1.38,55.28.8s.22-5.72-1.77-7.32c-1.21-1-9-4.58-14.86-7.28h0c-3.79-1.73-6.82-3.07-6.82-3.07l.17-6,.8-27.27H151.61S151.54,435.84,151.76,449.07Z"/><path class="cls-14" d="M188.07,429.15c-1,.18-37.57,0-37.57,0s.21,40.94,2.37,43.09,56.46,1.4,57.37.68-.06-5.92-3.9-9.25c-2.78-2.42-19.23-9.47-19.23-9.47Z"/><path class="cls-10" d="M189.29,452.82c-3.11-1.49-7.26-2.07-10.4-.42-.12.06,0,.23.08.23a47.45,47.45,0,0,1,10.17.59.22.22,0,0,0,.28-.12A.21.21,0,0,0,189.29,452.82Z"/><path class="cls-10" d="M189.29,450c-3.11-1.5-7.26-2.07-10.4-.42-.12.06,0,.22.08.22a48.11,48.11,0,0,1,10.17.6.22.22,0,0,0,.28-.12A.21.21,0,0,0,189.29,450Z"/><path class="cls-10" d="M189.29,447.24c-3.11-1.5-7.26-2.07-10.4-.43-.12.07,0,.23.08.23a48.11,48.11,0,0,1,10.17.6.22.22,0,0,0,.28-.13A.2.2,0,0,0,189.29,447.24Z"/><path class="cls-10" d="M189.29,444.44c-3.11-1.49-7.26-2.06-10.4-.42-.12.07,0,.23.08.23a48.11,48.11,0,0,1,10.17.6.23.23,0,0,0,.28-.13.22.22,0,0,0-.13-.28Z"/><path class="cls-10" d="M189.29,441.65c-3.11-1.49-7.26-2.06-10.4-.42-.12.07,0,.23.08.23a48.11,48.11,0,0,1,10.17.6.23.23,0,0,0,.28-.13.22.22,0,0,0-.13-.28Z"/><path class="cls-18" d="M172.86,264.34,176.62,290s-44.57.61-55-.11c0,0,10.94-47.9,22.18-60,5.64-6.06,12.24-5.6,16.46-1.37,1.06,1.07,13.78,17.71,15.12,24.07C176.53,258.16,172.86,264.34,172.86,264.34Z"/><path class="cls-17" d="M152.66,236.86c6.32.91,43.36-1.25,49.9-8.87,7.95-9.21,17.56-27.3,20-33.1,1.58-3.86-16.81-13.73-17.84-10.07-1.62,5.73-15.93,27.37-17,29.28s-17.55,7.51-27.14,12.25C152,230.6,148.2,236.19,152.66,236.86Z"/><path class="cls-17" d="M204.51,185.64s2.08-7.61,3.69-12.52c.93-2.75,2.86-7.32,4.45-9,2.37-2.57,13.95-11.8,16.27-9.07,2.11,2.47-8.86,9.15-8.86,9.15s10.47-7.71,12.44-4.27-11.43,9.36-11.43,9.36,10.94-7.68,12.41-3.81c1.11,2.92-10.73,9-10.73,9s9.44-6.55,10.72-3.59c1.41,3.26-9.17,9.51-9.17,9.51,2,8.07-.42,12.7-2.52,15.79C221.26,196.87,204.51,185.64,204.51,185.64Z"/><path class="cls-5" d="M216.25,166.6c1.2-.91,2.4-1.92,3.7-2.74s2.59-1.64,3.94-2.37a26.34,26.34,0,0,1,5.54-2.3,57.71,57.71,0,0,0-9.24,5c-1.28.83-2.59,1.61-3.86,2.45C216.25,166.69,216.22,166.65,216.25,166.6Z"/><path class="cls-5" d="M219.24,171.25c1.58-1.15,3.1-2.34,4.74-3.42s3.26-2,5-2.91c.14-.08.13,0,0,.1-1.65,1-3.1,2.09-4.74,3.14s-3.33,2-4.93,3.13C219.24,171.3,219.22,171.27,219.24,171.25Z"/><path class="cls-5" d="M221.08,175.67a43.78,43.78,0,0,1,7.66-4.69c.13-.06.11.06,0,.14-2.58,1.51-4.62,2.67-7.58,4.63C221.09,175.75,221,175.75,221.08,175.67Z"/><path class="cls-18" d="M178.42,216.12l9,19.28s-22.29,5.92-33,4.5c-7.72-1-7.46-7.1,3.18-13.37C166,221.58,178.42,216.12,178.42,216.12Z"/><path class="cls-5" d="M183.32,235.59a177.68,177.68,0,0,0-8-17.49c0-.07-.14,0-.1.06.72,1.38,4.68,11.06,7.95,17.48A.07.07,0,0,0,183.32,235.59Z"/><path class="cls-5" d="M168.44,239.28c-3.49.51-6.83,1.83-10.16,2.9a.07.07,0,0,0,0,.09.07.07,0,0,0,.08,0c1.29-.36,2.6-.69,3.91-1-.6.36-1.18.74-1.78,1.09-.08,0,0,.16.07.12.93-.52,1.85-.92,2.78-1.49a44.19,44.19,0,0,0,5.16-1.64S168.5,239.28,168.44,239.28Z"/></g><g id="freepik--xsrjP0--inject-701" class="cls-20"><path class="cls-21" d="M265.44,73.36c-.46-.78-.73-1.72-1.68-2.1-.36-.18-.15-.4-.05-.58l5.34-10.22c.12-.25.23-.45.59-.44,3.32.06,5.8-1.93,8.56-3.3A11.44,11.44,0,0,0,284.15,50c.31-.86.83-1,1.61-.78a2,2,0,0,1,1.64,1.64,15.06,15.06,0,0,1-.83,5.24,17.36,17.36,0,0,1-2.48,3.58c-.61.87-1.3,1.68-2,2.54.15.28.45.33.7.47l8.73,4.54c1.22.63,1.64,1.29,1.39,2.19a2.61,2.61,0,0,1-2.57,1.84c-.28,0-.61-.32-.82,0s.21.51.35.75c.67,1.26-.32,2.61-2,2.84-.39.07-.88-.31-1.15.09s.35.61.47,1c.39,1.24-.82,2.61-2.4,2.58l-.61-.07c-.19,0-.39.06-.2.4.79,1.55.12,2.78-1.59,3l-.52.08a2.78,2.78,0,0,1-1.7-.47l-13.74-7.15A1.88,1.88,0,0,1,265.44,73.36Z"/><path class="cls-21" d="M255.65,60.61,259,54.12c.23-.43.38-.63.93-.34q4,2.13,8,4.16c.53.27.51.5.28,1L261.41,72c-.29.55-.52.63-1.08.32l-7.75-4c-.65-.34-.62-.59-.31-1.19C253.4,64.92,254.52,62.78,255.65,60.61Z"/></g><circle class="cls-22" cx="65.66" cy="29.48" r="2.26"/><circle class="cls-22" cx="91.68" cy="29.48" r="2.26"/><circle class="cls-22" cx="117.7" cy="29.48" r="2.26"/><path class="cls-23" d="M445.28,150.71c-.29-1.21-1.18-2.84-.76-4.09a4.18,4.18,0,0,1,1.16-1.53c2.59-2.6,4.74-6.31,4.44-10.07-.35-4.48-4.09-8.05-8.07-10.32a33,33,0,0,0-21.7-3.76c-4.56.8-7,.73-10.93-2-7.07-4.89-14.63-9.5-22.93-12.05a34.19,34.19,0,0,0-12.81-1.64,24.31,24.31,0,0,0-6.19,1.36c-2.2.8-4.09,2.23-6.4,2.79-2.75.67-5.29-.31-7.6-1.77-7.52-4.72-22.13-20-29.83-7.42a14.11,14.11,0,0,0-1.53,9.88,22.09,22.09,0,0,0,1.52,4.86c.61,1.4,2,3,2.34,4.45.67,2.94-3,4.26-4.89,5.67a21.89,21.89,0,0,0-8.32,13.83c-1,6,.91,11.64,2.93,17.24-1.72,1.92-4,4.19-5.06,6.55a17.61,17.61,0,0,0-1.41,9.31,10.83,10.83,0,0,0,3.7,7.08c3.06,2.48,7.3,2.62,11,2.14,2.85-.37,7.11-1.91,9.64.14,1.69,1.36,2,3.8,3.75,5.26a13.85,13.85,0,0,0,7.19,2.93c4.42.58,8.54-.8,12.56,1.67a3.23,3.23,0,0,0-2.93.47,28,28,0,0,0-4.5,3.33c-2,1.7-3.92,3.44-5.82,5.24-3.17,3-5.89,5.37-3.72,5a157.77,157.77,0,0,0,23.93-6.64c5.15-2.11,10.6-4.57,16.32-3.48,2,.39,3.73,1.75,5.58,2.59a46.74,46.74,0,0,0,7.51,2.71c4.58,1.17,9.22,2.13,13.81,3.25,3.87,1.12,7.63,2.65,11.56,3.53,5.41,1.2,10.83.82,15.36-2.44,3.54-2.55,5.79-7.11,4.64-11.3-.5-1.87-1.61-3.53-2.17-5.38-1.06-3.52,1.31-5.26,3.14-7.87A36.2,36.2,0,0,0,446,164.12a37.07,37.07,0,0,0,.09-8.87A35.41,35.41,0,0,0,445.28,150.71Z"/></g><g id="Layer_3" data-name="Layer 3"><text class="cls-24" transform="translate(45.69 122.47)">λ©λ³΄νΈλ€ </text><text class="cls-25" transform="translate(41.61 122.47)">λ©λ³΄νΈλ€ </text><text class="cls-26" transform="translate(-179.66 -8.61)">λ©λ³΄νΈλ€ </text><text class="cls-27" transform="translate(41.61 -9.54)">λ©λ³΄νΈλ€ </text><path class="cls-28" d="M256.35,141.57a52.16,52.16,0,0,1,4.34-4.33,18.7,18.7,0,0,1,5.91-4,2.73,2.73,0,0,1,3.84,3.12,2.33,2.33,0,0,1-1.61,1.64l-.39.14a6,6,0,0,1-2,.25,22.43,22.43,0,0,0-2.94-.25,9.61,9.61,0,0,0-2.74.65l-.08,0a14.82,14.82,0,0,0-4.22,2.68A.73.73,0,0,0,256.35,141.57Z"/><path class="cls-29" d="M250.25,145a30.19,30.19,0,0,0,1.31-3.17,20.85,20.85,0,0,0,.9-4.36,14.34,14.34,0,0,1,.75-4.42,2.38,2.38,0,0,1,1.19-1.23,1.85,1.85,0,0,1,1.59.09,2.36,2.36,0,0,1,1.09,1.79,4.84,4.84,0,0,1-.33,2.12,19.25,19.25,0,0,1-2.81,4.77A36.22,36.22,0,0,1,250.25,145Z"/><path class="cls-30" d="M253.77,150.13c1-.26,2-.53,3.1-.72a13.5,13.5,0,0,1,3.36-.26c1.22.08,2.63.43,2.86,1.85a4,4,0,0,1-.12,1.73,1.47,1.47,0,0,1-.58.82,1.63,1.63,0,0,1-1.4.08,6.57,6.57,0,0,1-2.39-1.86,4.79,4.79,0,0,0-2.79-1.38,9.24,9.24,0,0,0-1.66-.08,7.59,7.59,0,0,0-1.58.11Z"/><path class="cls-28" d="M209.5,148.71a53.41,53.41,0,0,1-5.18-3.37,18.83,18.83,0,0,1-5.19-5,2.76,2.76,0,0,1,2.27-4.44,2.38,2.38,0,0,1,2,1.24,3.35,3.35,0,0,1,.21.36,5.81,5.81,0,0,1,.67,1.94,24.1,24.1,0,0,0,.37,2.94,9.84,9.84,0,0,0,1.22,2.58l0,.07a14.86,14.86,0,0,0,3.52,3.6Z"/><path class="cls-31" d="M213.18,160.91a29.84,29.84,0,0,0-3.52-.64,21.17,21.17,0,0,0-4.64,0c-1.52.13-3.18.55-4.69.19a2.56,2.56,0,0,1-1.52-.95,1.94,1.94,0,0,1-.24-1.64,2.43,2.43,0,0,1,1.59-1.5,5,5,0,0,1,2.24-.13,20.12,20.12,0,0,1,5.48,1.84A37.76,37.76,0,0,1,213.18,160.91Z"/><path class="cls-29" d="M214,155.39c-.54-1.09-1.08-2.18-1.55-3.31a16.73,16.73,0,0,1-1.1-3.72c-.2-1.4-.13-3.07,1.41-3.65a4.4,4.4,0,0,1,2-.28,1.67,1.67,0,0,1,1.06.45,1.85,1.85,0,0,1,.42,1.56,7.5,7.5,0,0,1-1.52,3.13,5.5,5.5,0,0,0-.88,3.47,11,11,0,0,0,.3,1.88,9.71,9.71,0,0,0,.5,1.75C214.39,156.24,214.19,155.81,214,155.39Z"/><text class="cls-32" transform="translate(346.18 135.56) rotate(14.57)">μ‘μ—…κ·Όλ΅μμ κ·Όκ³¨κ²©κ³„<tspan x="3.26" y="14">λ³΄νΈ λ©μ μΌλ΅ κ°λ°λ </tspan><tspan x="8.41" y="28">κ°μΈλ³΄νΈκµ¬ μ…λ‹λ‹¤.</tspan></text></g></svg>